<?xml version="1.0" encoding="UTF-8" standalone="no"?>
<!-- Created with Inkscape (http://www.inkscape.org/) -->

<svg
   xmlns:dc="http://purl.org/dc/elements/1.1/"
   xmlns:cc="http://creativecommons.org/ns#"
   xmlns:rdf="http://www.w3.org/1999/02/22-rdf-syntax-ns#"
   xmlns:svg="http://www.w3.org/2000/svg"
   xmlns="http://www.w3.org/2000/svg"
   xmlns:sodipodi="http://sodipodi.sourceforge.net/DTD/sodipodi-0.dtd"
   xmlns:inkscape="http://www.inkscape.org/namespaces/inkscape"
   width="183"
   height="109"
   viewBox="0 0 183 109"
   id="svg3411"
   version="1.1"
   inkscape:version="0.91 r13725"
   sodipodi:docname="Chocofé édességbolt.svg">
  <defs
     id="defs3413">
    <clipPath
       clipPathUnits="userSpaceOnUse"
       id="clipPath3370">
      <path
         d="m 0,114.793 205,0 L 205,0 0,0 0,114.793 Z"
         id="path3372"
         inkscape:connector-curvature="0" />
    </clipPath>
    <clipPath
       clipPathUnits="userSpaceOnUse"
       id="clipPath3350">
      <path
         d="m 0,114.793 205,0 L 205,0 0,0 0,114.793 Z"
         id="path3352"
         inkscape:connector-curvature="0" />
    </clipPath>
  </defs>
  <sodipodi:namedview
     id="base"
     pagecolor="#ffffff"
     bordercolor="#666666"
     borderopacity="1.0"
     inkscape:pageopacity="0.0"
     inkscape:pageshadow="2"
     inkscape:zoom="0.49497475"
     inkscape:cx="400.71188"
     inkscape:cy="475.14598"
     inkscape:document-units="px"
     inkscape:current-layer="layer1"
     showgrid="false"
     inkscape:window-width="1366"
     inkscape:window-height="706"
     inkscape:window-x="-8"
     inkscape:window-y="-8"
     inkscape:window-maximized="1" />
  <metadata
     id="metadata3416">
    <rdf:RDF>
      <cc:Work
         rdf:about="">
        <dc:format>image/svg+xml</dc:format>
        <dc:type
           rdf:resource="http://purl.org/dc/dcmitype/StillImage" />
        <dc:title></dc:title>
      </cc:Work>
    </rdf:RDF>
  </metadata>
  <g
     inkscape:label="Layer 1"
     inkscape:groupmode="layer"
     id="layer1"
     transform="translate(0,-943.36219)">
    <g
       transform="matrix(1.25,0,0,-1.25,-36.22325,1071.2747)"
       clip-path="url(#clipPath3350)"
       id="g3348">
      <g
         transform="translate(175.5775,38.529)"
         id="g3354">
        <path
           inkscape:connector-curvature="0"
           id="path3356"
           style="fill:#dfd5be;fill-opacity:1;fill-rule:nonzero;stroke:none"
           d="m 0,0 c 0,-0.798 -0.228,-1.765 -0.683,-2.903 -1.823,-4.612 -5.068,-8.825 -9.736,-12.639 -6.433,-5.237 -13.891,-7.857 -22.373,-7.857 -12.468,0 -22.375,3.758 -29.718,11.273 -7.515,7.685 -11.273,18.275 -11.273,31.767 0,11.785 4.256,22.075 12.767,30.871 8.511,8.796 18.716,13.194 30.615,13.194 6.832,0 12.809,-1.823 17.933,-5.466 5.578,-3.985 8.368,-9.051 8.368,-15.2 0,-5.181 -1.636,-9.551 -4.909,-13.108 -3.275,-3.559 -7.331,-5.337 -12.17,-5.337 -4.098,0 -7.629,1.195 -10.588,3.586 -3.19,2.562 -4.783,5.807 -4.783,9.735 0,2.562 0.854,4.953 2.562,7.174 1.48,1.992 3.017,3.187 4.611,3.586 0.627,0.227 1.111,0.171 1.452,-0.171 0.342,-0.341 0.427,-0.74 0.256,-1.195 -0.285,-0.798 -0.484,-1.452 -0.597,-1.965 -0.342,-1.139 -0.513,-2.164 -0.513,-3.073 0,-0.628 0.029,-1.111 0.085,-1.452 0.342,-1.766 1.267,-3.117 2.776,-4.057 1.508,-0.939 3.259,-1.409 5.252,-1.409 2.733,0 4.923,0.996 6.575,2.989 1.651,1.992 2.477,4.469 2.477,7.43 0,4.326 -2.079,7.742 -6.234,10.247 -3.758,2.277 -8.17,3.416 -13.236,3.416 -9.622,0 -17.408,-3.659 -23.356,-10.973 -5.95,-7.317 -8.924,-16.469 -8.924,-27.455 0,-9.565 3.045,-17.735 9.137,-24.509 6.319,-7.003 14.147,-10.504 23.484,-10.504 5.863,0 10.746,0.868 14.645,2.605 3.9,1.736 7.9,4.966 11.998,9.692 0.057,0.114 0.399,0.598 1.026,1.452 0.454,0.626 0.853,1.053 1.195,1.281 0.285,0.171 0.669,0.184 1.153,0.042 C -0.242,0.925 0,0.569 0,0" />
      </g>
      <g
         transform="translate(29.8506,39.5964)"
         id="g3358">
        <path
           inkscape:connector-curvature="0"
           id="path3360"
           style="fill:#dfd5be;fill-opacity:1;fill-rule:nonzero;stroke:none"
           d="m 0,0 c 0.484,0.141 0.869,0.128 1.153,-0.042 0.342,-0.229 0.74,-0.656 1.195,-1.281 0.627,-0.855 0.969,-1.339 1.025,-1.452 4.099,-4.727 8.1,-7.957 11.998,-9.693 3.901,-1.737 8.783,-2.604 14.646,-2.604 9.338,0 17.165,3.501 23.484,10.504 6.092,6.774 9.137,14.944 9.137,24.508 0,10.987 -2.974,20.139 -8.924,27.455 -5.948,7.315 -13.734,10.973 -23.356,10.973 -5.066,0 -9.479,-1.139 -13.236,-3.415 -4.155,-2.506 -6.234,-5.922 -6.234,-10.248 0,-2.961 0.826,-5.437 2.476,-7.429 1.652,-1.994 3.844,-2.989 6.576,-2.989 1.993,0 3.744,0.47 5.252,1.409 1.509,0.939 2.434,2.291 2.775,4.056 0.058,0.342 0.086,0.825 0.086,1.452 0,0.91 -0.171,1.935 -0.513,3.074 -0.113,0.512 -0.312,1.166 -0.598,1.964 -0.17,0.455 -0.085,0.854 0.257,1.196 0.341,0.342 0.826,0.397 1.452,0.171 1.594,-0.4 3.131,-1.595 4.611,-3.587 1.708,-2.22 2.562,-4.611 2.562,-7.173 0,-3.929 -1.594,-7.174 -4.783,-9.736 -2.959,-2.391 -6.489,-3.586 -10.588,-3.586 -4.839,0 -8.895,1.778 -12.169,5.337 -3.273,3.558 -4.911,7.927 -4.911,13.108 0,6.149 2.79,11.215 8.369,15.201 5.124,3.643 11.101,5.465 17.933,5.465 11.9,0 22.104,-4.398 30.615,-13.194 8.511,-8.795 12.767,-19.086 12.767,-30.87 0,-13.493 -3.758,-24.082 -11.273,-31.768 -7.344,-7.515 -17.25,-11.272 -29.717,-11.272 -8.483,0 -15.94,2.619 -22.374,7.856 -4.668,3.814 -7.913,8.028 -9.736,12.639 -0.455,1.139 -0.683,2.106 -0.683,2.904 0,0.568 0.243,0.925 0.726,1.067" />
      </g>
    </g>
    <text
       y="1019.8617"
       x="-0.93637562"
       style="font-variant:normal;font-weight:bold;font-stretch:normal;font-size:35.03212357px;font-family:'Trajan Pro 3';-inkscape-font-specification:TrajanPro3-Bold;writing-mode:lr-tb;fill:#521a1d;fill-opacity:1;fill-rule:nonzero;stroke:none"
       id="text3362">
      <tspan
         x="-0.93637562 24.997923 55.332226 85.337234 111.30654 140.47084 161.07323"
         y="1019.8617"
         sodipodi:role="line"
         id="tspan3364">chocofé</tspan>
    </text>
    <g
       transform="matrix(1.25,0,0,-1.25,-36.22325,1071.2747)"
       id="g3366">
      <g
         id="g3368"
         clip-path="url(#clipPath3370)">
        <g
           id="g3374"
           transform="translate(42.1021,40.71)">
          <path
             d="m 0,0 c 1.569,0 3.307,0.14 4.288,0.533 0.393,0.14 0.588,0.392 0.672,0.812 0.197,1.177 0.533,3.307 0.533,3.784 0,0.252 -0.084,0.42 -0.252,0.42 C 5.045,5.549 4.96,5.465 4.849,4.96 4.681,4.204 4.344,3.531 4.036,3.195 3.055,2.158 1.85,1.99 -0.14,1.99 c -4.288,0 -6.894,3.447 -6.894,8.267 0,2.635 0.701,4.821 2.186,5.998 0.896,0.757 2.158,1.093 3.475,1.093 2.438,0 4.148,-0.589 5.017,-1.514 0.868,-0.924 0.897,-1.933 0.924,-2.41 0.028,-0.336 0.113,-0.532 0.308,-0.532 0.225,0 0.309,0.224 0.337,0.588 0.056,0.701 0.084,2.103 0.112,2.915 0.056,0.813 0.112,1.513 0.112,1.709 0,0.141 0,0.309 -0.28,0.337 -0.757,0 -1.261,0.112 -2.438,0.308 -0.953,0.14 -2.186,0.28 -3.588,0.28 -3.587,0 -6.165,-0.672 -8.38,-2.466 -2.55,-2.046 -3.166,-5.101 -3.166,-6.754 0,-2.634 0.701,-5.101 3.195,-7.146 C -6.502,0.504 -3.251,0 0,0 Z"
             style="fill:none;stroke:#ffffff;stroke-width:1.41700006;stroke-linecap:butt;stroke-linejoin:miter;stroke-miterlimit:10;stroke-dasharray:none;stroke-opacity:1"
             id="path3376"
             inkscape:connector-curvature="0" />
        </g>
        <g
           id="g3378"
           transform="translate(57.8052,52.0322)">
          <path
             d="m 0,0 c -0.084,0 -0.168,0 -0.168,0.14 l 0,0.505 c 0,2.886 0,3.896 0.084,4.68 0.056,0.645 0.168,1.233 0.896,1.373 0.225,0.056 0.449,0.084 0.786,0.113 0.336,0.027 0.448,0.14 0.448,0.251 0,0.169 -0.056,0.309 -0.533,0.309 -1.093,0 -3.027,-0.084 -4.063,-0.084 -0.561,0 -2.803,0.084 -4.288,0.084 -0.281,0 -0.533,-0.084 -0.533,-0.252 0,-0.084 0.028,-0.281 0.421,-0.308 0.308,-0.029 0.392,-0.029 0.756,-0.085 0.953,-0.14 1.15,-0.588 1.205,-1.401 0.056,-0.784 0.085,-1.289 0.085,-5.073 l 0,-4.175 c 0,-2.355 -0.029,-3.924 -0.14,-4.961 -0.057,-0.757 -0.281,-1.373 -0.926,-1.457 -0.308,-0.056 -0.448,-0.056 -0.728,-0.084 -0.337,-0.029 -0.421,-0.14 -0.421,-0.309 0,-0.168 0.253,-0.252 0.533,-0.252 0.756,0 3.699,0.084 3.812,0.084 0.14,0 3.446,-0.084 4.848,-0.084 0.392,0 0.476,0.14 0.476,0.252 0,0.169 -0.14,0.28 -0.476,0.309 -0.197,0.028 -0.589,0.028 -0.953,0.112 -0.757,0.084 -1.065,0.56 -1.149,1.289 -0.112,1.009 -0.14,1.766 -0.14,4.091 l 0,2.579 c 0,0.14 0.084,0.168 0.168,0.168 l 7.399,0 c 0.084,0 0.168,-0.056 0.168,-0.168 l 0,-1.85 c 0,-2.354 -0.028,-3.755 -0.14,-4.764 -0.084,-0.813 -0.253,-1.261 -0.869,-1.373 -0.224,-0.056 -0.42,-0.056 -0.729,-0.084 -0.308,0 -0.448,-0.169 -0.448,-0.281 0,-0.14 0.056,-0.28 0.533,-0.28 1.289,0 3.278,0.084 3.671,0.084 0.392,0 3.166,-0.084 4.876,-0.084 0.309,0 0.56,0.056 0.56,0.252 0,0.169 -0.14,0.28 -0.476,0.309 -0.224,0.028 -0.7,0.028 -1.037,0.084 -0.757,0.112 -0.981,0.504 -1.065,1.345 -0.112,0.981 -0.14,2.718 -0.14,5.073 l 0,4.259 c 0,3.784 0,4.344 0.084,5.129 0.084,0.785 0.28,1.149 0.925,1.233 0.28,0.056 0.309,0.056 0.785,0.113 0.308,0 0.392,0.14 0.392,0.28 0,0.168 -0.056,0.28 -0.504,0.28 -1.093,0 -4.232,-0.084 -4.344,-0.084 -0.141,0 -2.579,0.084 -4.064,0.084 -0.392,0 -0.504,-0.112 -0.504,-0.28 0,-0.085 0.14,-0.28 0.476,-0.28 C 5.857,6.782 6.222,6.754 6.418,6.726 7.259,6.586 7.455,6.138 7.511,5.521 7.567,4.736 7.567,4.428 7.567,0.645 l 0,-0.505 C 7.567,0 7.483,0 7.399,0 L 0,0 Z"
             style="fill:none;stroke:#ffffff;stroke-width:1.41700006;stroke-linecap:butt;stroke-linejoin:miter;stroke-miterlimit:10;stroke-dasharray:none;stroke-opacity:1"
             id="path3380"
             inkscape:connector-curvature="0" />
        </g>
        <g
           id="g3382"
           transform="translate(85.3794,40.71)">
          <path
             d="m 0,0 c 6.614,0 10.565,4.288 10.565,9.977 0,4.765 -4.007,9.052 -10.397,9.052 -7.371,0 -10.846,-4.54 -10.846,-9.612 C -10.678,5.129 -7.455,0 0,0 Z m 0.672,1.682 c -4.175,0 -5.969,4.456 -5.969,8.94 0,5.689 2.438,6.782 4.596,6.782 4.54,0 5.886,-4.848 5.886,-8.548 0,-6.586 -2.971,-7.174 -4.513,-7.174 z"
             style="fill:none;stroke:#ffffff;stroke-width:1.41700006;stroke-linecap:butt;stroke-linejoin:miter;stroke-miterlimit:10;stroke-dasharray:none;stroke-opacity:1"
             id="path3384"
             inkscape:connector-curvature="0" />
        </g>
        <g
           id="g3386"
           transform="translate(111.1206,40.71)">
          <path
             d="m 0,0 c 1.569,0 3.307,0.14 4.288,0.533 0.393,0.14 0.588,0.392 0.672,0.812 0.197,1.177 0.533,3.307 0.533,3.784 0,0.252 -0.084,0.42 -0.252,0.42 C 5.045,5.549 4.96,5.465 4.849,4.96 4.681,4.204 4.344,3.531 4.036,3.195 3.055,2.158 1.85,1.99 -0.14,1.99 c -4.288,0 -6.894,3.447 -6.894,8.267 0,2.635 0.701,4.821 2.186,5.998 0.896,0.757 2.158,1.093 3.475,1.093 2.438,0 4.148,-0.589 5.017,-1.514 0.868,-0.924 0.897,-1.933 0.924,-2.41 0.028,-0.336 0.113,-0.532 0.308,-0.532 0.225,0 0.309,0.224 0.337,0.588 0.056,0.701 0.084,2.103 0.112,2.915 0.056,0.813 0.112,1.513 0.112,1.709 0,0.141 0,0.309 -0.28,0.337 -0.757,0 -1.261,0.112 -2.438,0.308 -0.953,0.14 -2.186,0.28 -3.588,0.28 -3.587,0 -6.165,-0.672 -8.38,-2.466 -2.55,-2.046 -3.166,-5.101 -3.166,-6.754 0,-2.634 0.701,-5.101 3.195,-7.146 C -6.502,0.504 -3.251,0 0,0 Z"
             style="fill:none;stroke:#ffffff;stroke-width:1.41700006;stroke-linecap:butt;stroke-linejoin:miter;stroke-miterlimit:10;stroke-dasharray:none;stroke-opacity:1"
             id="path3388"
             inkscape:connector-curvature="0" />
        </g>
        <g
           id="g3390"
           transform="translate(130.1587,40.71)">
          <path
             d="m 0,0 c 6.614,0 10.565,4.288 10.565,9.977 0,4.765 -4.007,9.052 -10.397,9.052 -7.371,0 -10.846,-4.54 -10.846,-9.612 C -10.678,5.129 -7.455,0 0,0 Z m 0.672,1.682 c -4.175,0 -5.969,4.456 -5.969,8.94 0,5.689 2.438,6.782 4.596,6.782 4.54,0 5.886,-4.848 5.886,-8.548 0,-6.586 -2.971,-7.174 -4.513,-7.174 z"
             style="fill:none;stroke:#ffffff;stroke-width:1.41700006;stroke-linecap:butt;stroke-linejoin:miter;stroke-miterlimit:10;stroke-dasharray:none;stroke-opacity:1"
             id="path3392"
             inkscape:connector-curvature="0" />
        </g>
        <g
           id="g3394"
           transform="translate(145.2783,48.1089)">
          <path
             d="m 0,0 c 0,-2.354 0,-3.223 -0.112,-4.625 -0.084,-1.064 -0.224,-1.709 -0.897,-1.793 -0.337,-0.056 -0.533,-0.056 -0.757,-0.084 -0.392,-0.056 -0.42,-0.196 -0.42,-0.309 0,-0.14 0.14,-0.251 0.504,-0.251 0.561,0 2.13,0.083 4.176,0.083 3.139,0 3.139,-0.083 4.484,-0.083 0.504,0 0.561,0.14 0.561,0.28 0,0.14 -0.168,0.252 -0.561,0.28 -0.224,0 -0.532,0.028 -0.869,0.084 -0.981,0.14 -1.149,0.561 -1.205,1.261 -0.14,1.037 -0.14,2.467 -0.14,4.821 l 0,1.765 c 0,0.14 0.028,0.196 0.168,0.196 0.785,0 2.775,-0.056 3.588,-0.112 1.289,-0.056 1.569,-0.448 1.653,-1.233 0.028,-0.168 0.056,-0.308 0.084,-0.476 0.028,-0.308 0.14,-0.421 0.281,-0.421 0.195,0 0.252,0.224 0.252,0.477 0,0.28 -0.028,1.569 0,2.102 0.084,0.896 0.196,1.85 0.196,2.13 0,0.14 0,0.336 -0.168,0.336 -0.112,0 -0.225,-0.084 -0.337,-0.252 C 10.145,3.615 9.865,3.559 8.463,3.503 7.482,3.475 5.745,3.447 4.96,3.475 c -0.168,0 -0.196,0.112 -0.196,0.28 l 0,5.325 c 0,0.169 0.056,0.253 0.224,0.253 0.757,0 3.083,-0.057 3.98,-0.113 1.177,-0.112 1.513,-0.42 1.654,-1.009 0.084,-0.336 0.084,-0.476 0.111,-0.784 0.029,-0.224 0.113,-0.393 0.281,-0.393 0.196,0 0.28,0.084 0.308,0.421 0.028,1.149 0.084,1.878 0.14,2.522 0.056,0.561 0.168,1.121 0.196,1.317 0.029,0.112 0,0.225 -0.168,0.225 -0.056,0 -0.252,-0.057 -0.42,-0.113 -0.224,-0.056 -0.897,-0.168 -1.402,-0.168 -0.364,0 -7.09,-0.028 -7.538,-0.028 -1.037,0 -2.466,0.084 -3.924,0.084 -0.477,0 -0.644,-0.084 -0.644,-0.28 0,-0.168 0.224,-0.224 0.476,-0.28 0.308,-0.028 0.645,-0.056 0.897,-0.112 0.672,-0.084 0.925,-0.505 0.981,-1.373 C -0.028,8.492 0,8.295 0,4.26 L 0,0 Z"
             style="fill:none;stroke:#ffffff;stroke-width:1.41700006;stroke-linecap:butt;stroke-linejoin:miter;stroke-miterlimit:10;stroke-dasharray:none;stroke-opacity:1"
             id="path3396"
             inkscape:connector-curvature="0" />
        </g>
        <g
           id="g3398"
           transform="translate(161.7603,48.1089)">
          <path
             d="m 0,0 c 0,-1.345 -0.028,-2.69 -0.028,-3.615 -0.084,-1.71 -0.168,-2.663 -0.981,-2.803 -0.281,-0.056 -0.476,-0.056 -0.729,-0.084 -0.42,0 -0.504,-0.14 -0.504,-0.252 0,-0.168 0.112,-0.308 0.588,-0.308 1.429,0 2.634,0.083 3.812,0.083 2.662,0 4.456,-0.14 8.211,-0.14 0.925,0 1.121,0.028 1.318,0.645 0.111,0.476 0.364,2.438 0.364,3.503 0,0.308 -0.028,0.505 -0.224,0.505 -0.169,0 -0.281,-0.14 -0.337,-0.421 -0.224,-1.121 -0.504,-1.709 -1.205,-1.989 -0.701,-0.253 -1.681,-0.281 -2.326,-0.281 -2.858,0 -3.167,0.392 -3.195,2.102 -0.028,0.981 0,2.13 0,2.943 l 0,1.765 c 0,0.14 0.028,0.197 0.168,0.197 0.785,0 2.691,-0.028 3.475,-0.084 C 9.725,1.682 10.005,1.233 10.145,0.476 10.173,0.308 10.173,0.14 10.201,0 c 0.028,-0.28 0.14,-0.393 0.28,-0.393 0.168,0 0.252,0.084 0.252,0.421 0,0.28 0.029,1.569 0.057,2.102 0.028,0.897 0.196,1.962 0.196,2.242 0,0.14 -0.028,0.308 -0.196,0.308 -0.112,0 -0.225,-0.084 -0.337,-0.308 C 10.145,3.896 9.809,3.812 8.436,3.755 7.455,3.727 5.717,3.727 4.96,3.727 4.792,3.727 4.764,3.783 4.764,3.952 l 0,5.128 c 0,0.169 0.056,0.253 0.196,0.253 0.785,0 2.831,-0.057 3.756,-0.113 1.205,-0.112 1.513,-0.448 1.653,-1.009 0.084,-0.364 0.084,-0.56 0.14,-0.897 0.029,-0.224 0.14,-0.336 0.281,-0.336 0.168,0 0.28,0.196 0.28,0.393 0.084,1.513 0.112,2.018 0.14,2.634 0.056,0.56 0.14,0.869 0.196,1.177 0.028,0.14 -0.028,0.253 -0.168,0.253 -0.084,0 -0.224,-0.029 -0.392,-0.085 -0.421,-0.084 -0.953,-0.112 -1.429,-0.112 -0.393,0 -6.839,-0.028 -7.287,-0.028 -1.065,0 -2.242,0.084 -3.755,0.084 -0.393,0 -0.533,-0.112 -0.533,-0.252 0,-0.14 0.056,-0.28 0.42,-0.308 0.253,-0.028 0.532,-0.028 0.757,-0.085 0.588,-0.111 0.841,-0.504 0.897,-1.12 C -0.028,8.744 0,8.295 0,4.26 L 0,0 Z m 8.8,17.488 c -0.308,0.252 -0.421,0.308 -0.589,0.28 -0.196,0 -0.476,-0.14 -0.897,-0.476 -0.7,-0.561 -2.662,-2.522 -3.699,-3.784 -0.168,-0.196 -0.28,-0.364 -0.28,-0.504 0,-0.112 0.112,-0.169 0.252,-0.196 0.112,0.027 0.336,0.112 0.617,0.252 1.205,0.588 2.438,1.065 4.148,1.626 0.644,0.195 1.429,0.364 1.625,0.335 0.168,0 0.252,0.113 0.14,0.477 -0.336,0.897 -0.981,1.626 -1.317,1.99 z"
             style="fill:none;stroke:#ffffff;stroke-width:1.41700006;stroke-linecap:butt;stroke-linejoin:miter;stroke-miterlimit:10;stroke-dasharray:none;stroke-opacity:1"
             id="path3400"
             inkscape:connector-curvature="0" />
        </g>
      </g>
    </g>
    <text
       y="1019.8617"
       x="-0.93637562"
       style="font-variant:normal;font-weight:bold;font-stretch:normal;font-size:35.03212357px;font-family:'Trajan Pro 3';-inkscape-font-specification:TrajanPro3-Bold;writing-mode:lr-tb;fill:#521a1d;fill-opacity:1;fill-rule:nonzero;stroke:none"
       id="text3402">
      <tspan
         x="-0.93637562 24.997923 55.332226 85.337234 111.30654 140.47084 161.07323"
         y="1019.8617"
         sodipodi:role="line"
         id="tspan3404">chocofé</tspan>
    </text>
  </g>
</svg>
