<?xml version="1.0" encoding="UTF-8" standalone="no"?>
<!-- Created with Inkscape (http://www.inkscape.org/) -->

<svg
   xmlns:dc="http://purl.org/dc/elements/1.1/"
   xmlns:cc="http://creativecommons.org/ns#"
   xmlns:rdf="http://www.w3.org/1999/02/22-rdf-syntax-ns#"
   xmlns:svg="http://www.w3.org/2000/svg"
   xmlns="http://www.w3.org/2000/svg"
   xmlns:sodipodi="http://sodipodi.sourceforge.net/DTD/sodipodi-0.dtd"
   xmlns:inkscape="http://www.inkscape.org/namespaces/inkscape"
   width="1410.23"
   height="619.45398"
   viewBox="0 0 1410.23 619.45399"
   id="svg3452"
   version="1.1"
   inkscape:version="0.91 r13725"
   sodipodi:docname="Telki pékség.svg">
  <defs
     id="defs3454">
    <clipPath
       clipPathUnits="userSpaceOnUse"
       id="clipPath3350">
      <path
         d="m -15,-15 1164,0 0,527 -1164,0 0,-527 z"
         id="path3352"
         inkscape:connector-curvature="0"
         style="clip-rule:evenodd" />
    </clipPath>
    <linearGradient
       x1="0"
       y1="0"
       x2="1"
       y2="0"
       gradientUnits="userSpaceOnUse"
       gradientTransform="matrix(564.09449,0,0,493.43584,566.9291,2.3771)"
       spreadMethod="pad"
       id="linearGradient3364">
      <stop
         style="stop-opacity:1;stop-color:#fffccc"
         offset="0"
         id="stop3366" />
      <stop
         style="stop-opacity:1;stop-color:#fbca8e"
         offset="1"
         id="stop3368" />
    </linearGradient>
    <linearGradient
       x1="0"
       y1="0"
       x2="1"
       y2="0"
       gradientUnits="userSpaceOnUse"
       gradientTransform="matrix(-564.09449,0,0,-493.43584,566.9291,495.813)"
       spreadMethod="pad"
       id="linearGradient3382">
      <stop
         style="stop-opacity:1;stop-color:#fffccc"
         offset="0"
         id="stop3384" />
      <stop
         style="stop-opacity:1;stop-color:#fbca8e"
         offset="1"
         id="stop3386" />
    </linearGradient>
    <radialGradient
       fx="0"
       fy="0"
       cx="0"
       cy="0"
       r="0.41999999"
       gradientUnits="userSpaceOnUse"
       gradientTransform="matrix(983.10104,0,0,983.10104,566.9294,240.4171)"
       spreadMethod="pad"
       id="radialGradient3404">
      <stop
         style="stop-opacity:1;stop-color:#f46d57"
         offset="0"
         id="stop3406" />
      <stop
         style="stop-opacity:1;stop-color:#8c3a29"
         offset="0.47"
         id="stop3408" />
      <stop
         style="stop-opacity:1;stop-color:#3b150b"
         offset="1"
         id="stop3410" />
    </radialGradient>
  </defs>
  <sodipodi:namedview
     id="base"
     pagecolor="#ffffff"
     bordercolor="#666666"
     borderopacity="1.0"
     inkscape:pageopacity="0.0"
     inkscape:pageshadow="2"
     inkscape:zoom="0.35"
     inkscape:cx="375"
     inkscape:cy="520"
     inkscape:document-units="px"
     inkscape:current-layer="layer1"
     showgrid="false"
     units="px"
     width="1410.23px"
     inkscape:window-width="1366"
     inkscape:window-height="706"
     inkscape:window-x="-8"
     inkscape:window-y="-8"
     inkscape:window-maximized="1" />
  <metadata
     id="metadata3457">
    <rdf:RDF>
      <cc:Work
         rdf:about="">
        <dc:format>image/svg+xml</dc:format>
        <dc:type
           rdf:resource="http://purl.org/dc/dcmitype/StillImage" />
        <dc:title></dc:title>
      </cc:Work>
    </rdf:RDF>
  </metadata>
  <g
     inkscape:label="Layer 1"
     inkscape:groupmode="layer"
     id="layer1"
     transform="translate(0,-432.90816)">
    <g
       transform="matrix(1.25,0,0,-1.25,-3.54325,1052.6746)"
       clip-path="url(#clipPath3350)"
       id="g3348">
      <g
         id="g3354">
        <g
           id="g3356">
          <g
             id="g3362">
            <path
               inkscape:connector-curvature="0"
               id="path3370"
               style="fill:url(#linearGradient3364);fill-rule:evenodd;stroke:none"
               d="m 566.9291,2.3774 564.0945,0 0,386.5626 c 0,58.7795 -50.1108,106.873 -111.3576,106.873 l -452.7369,0 0,-493.4356 z" />
          </g>
        </g>
      </g>
      <g
         id="g3372">
        <g
           id="g3374">
          <g
             id="g3380">
            <path
               inkscape:connector-curvature="0"
               id="path3388"
               style="fill:url(#linearGradient3382);fill-rule:evenodd;stroke:none"
               d="m 566.9291,2.3774 -564.0945,0 0,386.5626 c 0,58.7801 50.1109,106.873 111.3577,106.873 l 452.7368,0 0,-493.4356 z" />
          </g>
        </g>
      </g>
      <path
         inkscape:connector-curvature="0"
         id="path3390"
         style="fill:#ffffff;fill-opacity:1;fill-rule:evenodd;stroke:none"
         d="m 989.8098,2.3777 c 62.3421,41.0723 99.131,91.567 99.131,146.1651 0,137.6793 -233.7611,249.3326 -522.0111,249.3326 -288.2503,0 -522.0113,-111.6533 -522.0113,-249.3326 0,-54.5981 36.7888,-105.0928 99.1309,-146.1651 l 845.7605,0 z" />
      <path
         inkscape:connector-curvature="0"
         id="path3392"
         style="fill:#3b150b;fill-opacity:1;fill-rule:evenodd;stroke:none"
         d="m 566.9294,397.8754 c 114.2629,0 230.9879,-17.6644 328.5836,-55.2934 84.856,-32.7175 155.7224,-81.2608 182.609,-142.1249 7.4778,-16.9271 11.2924,-34.3579 11.2924,-51.9143 0,-17.3727 -3.7352,-34.6252 -11.0613,-51.3882 l -6.2045,-14.1959 -1010.4386,0 -6.2042,14.1959 c -7.3262,16.763 -11.0614,34.0155 -11.0614,51.3882 0,17.5564 3.8146,34.9872 11.2921,51.9143 26.8869,60.8641 97.753,109.4074 182.6093,142.1249 97.5957,37.629 214.3208,55.2934 328.5836,55.2934 z M 70.5776,90.1757 l 992.7037,0 3.8778,8.8725 c 7.0494,16.1308 10.6548,32.777 10.6548,49.4946 0,16.8939 -3.6819,33.7127 -10.8774,50.0017 -26.094,59.0698 -95.2021,106.1586 -177.5341,137.9027 -95.7606,36.9216 -210.3582,54.2109 -322.473,54.2109 -112.1148,0 -226.7124,-17.2893 -322.473,-54.2109 C 162.1242,304.7031 93.0161,257.6143 66.922,198.5445 59.7268,182.2555 56.0449,165.4367 56.0449,148.5428 c 0,-16.7176 3.6054,-33.3638 10.6549,-49.4946 l 3.8778,-8.8725 z" />
      <g
         id="g3394">
        <g
           id="g3396">
          <g
             id="g3402">
            <path
               inkscape:connector-curvature="0"
               id="path3412"
               style="fill:url(#radialGradient3404);fill-rule:evenodd;stroke:none"
               d="m 566.9294,378.6296 c 271.4301,0 491.5505,-103.0349 491.5505,-230.0868 0,-15.8723 -3.4356,-31.3699 -9.9776,-46.3385 l -963.146,0 c -6.5418,14.9686 -9.9774,30.4662 -9.9774,46.3385 0,127.0519 220.1202,230.0868 491.5505,230.0868" />
          </g>
        </g>
      </g>
      <path
         inkscape:connector-curvature="0"
         id="path3414"
         style="fill:#f1dc88;fill-opacity:1;fill-rule:evenodd;stroke:none"
         d="m 95.4791,257.1758 0.9453,-2.4032 0.434,0.7228 -1.3793,1.6804 z" />
      <path
         inkscape:connector-curvature="0"
         id="path3416"
         style="fill:#fffccc;fill-opacity:1;fill-rule:evenodd;stroke:none"
         d="m 451.6121,177.7569 18.7191,0 0,-10.3753 -111.2227,0 c -0.6154,-1.2022 -1.4012,-2.4721 -1.8258,-3.1825 -1.6361,-2.7365 -3.3596,-5.4354 -5.1134,-8.098 -1.7362,-2.6357 -3.5195,-5.2696 -5.396,-7.8069 -0.9596,-1.2974 -2.9041,-4.0116 -4.373,-4.6755 -3.4728,-1.5709 -6.9064,-1.6296 -10.6254,-1.3402 -2.1742,0.169 -5.2838,0.62 -7.3735,-0.0385 -2.7561,-0.8689 -4.1355,-4.1582 -4.9173,-7.047 l 4.8237,-1.5304 -12.473,-37.6988 -0.0839,-0.1675 c -0.826,-1.6495 -1.7759,-3.2995 -2.7221,-4.881 -2.0619,-3.4455 -4.3571,-6.8369 -6.9247,-9.9261 -2.685,-3.2303 -6.1277,-6.6724 -10.0007,-8.4543 l -9.53,-6.6719 -6.175,-1.383 -2.1915,-0.7586 5.1877,-19.7303 5.5573,-43.7411 -190.6424,0 0.7982,6.5639 c -5.0048,3.3633 -6.686,11.1748 -6.9976,17.0447 L 85.339,25.7749 81.9825,21.7735 80.731,21.8123 C 72.9757,22.0521 63.1074,35.7514 58.4935,41.7212 l -4.9116,4.2979 -1.5083,5.9181 -1.2016,4.038 -1.2186,8.1924 5e-4,10.6713 c 0.1707,8.5842 3.2318,17.3098 7.1008,24.893 2.8636,5.6126 6.3595,10.999 10.2515,15.9531 3.1799,4.0479 6.8445,8.1221 10.813,11.4146 4.1327,3.4285 7.8727,7.1923 10.81,11.7068 1.9,2.9199 3.3035,6.0993 5.1891,8.9866 2.1875,3.3495 4.7888,5.6393 8.2621,7.6162 5.1613,2.9372 11.632,4.8926 17.4127,6.4207 l 2.065,2.3137 c -0.2367,0.5859 -0.4521,1.1812 -0.6565,1.7546 -0.2741,0.7693 -0.6392,1.4944 -1.0794,2.1815 -1.5659,2.4432 -4.1414,4.5034 -6.3627,6.3372 -3.1291,2.5826 -6.0573,5.0748 -8.5637,8.3049 l -0.3657,0.4717 -0.1216,0.5842 c -0.3481,1.6722 -0.8614,3.2094 -1.3414,4.8382 -0.748,2.5373 -1.0408,4.7679 -1.0408,7.4205 0,3.9858 0.765,8.2438 4.1697,10.766 2.278,1.6875 5.1489,2.1493 7.9121,2.2856 1.5987,0.0791 3.2119,0.0629 4.8257,0.0303 l -4.3345,8.3004 c -0.8722,-0.4036 -1.6653,-0.9045 -2.5928,-1.4201 -2.0435,-1.1353 -3.8753,-1.6821 -6.2359,-1.6821 l -3.4915,0 c -2.1549,0 -4.2103,0.5176 -6.0718,1.6124 -7.2527,4.2664 -9.066,15.69 -9.286,23.9218 -4.1159,1.8522 -7.8735,5.9613 -10.2498,9.432 -2.5379,3.7072 -4.9048,8.6698 -4.9048,13.2452 0,14.1505 4.6219,28.7844 16.1062,37.7827 6.8457,5.3637 15.0721,7.8213 23.7166,7.8213 l 10.5466,0 c 2.6768,14.2186 19.4187,31.29 33.6796,31.29 l 6.9831,0 c 8.0952,0 14.2934,-2.7465 18.9927,-9.3937 1.654,-2.3398 2.9322,-4.8603 4.2664,-7.3851 0.9947,-1.882 2.1359,-4.0371 3.6003,-5.5939 0.8529,-0.9071 3.2584,-1.711 4.4232,-2.1167 2.7397,-0.9541 5.4082,-1.836 7.9784,-3.2181 8.0869,-4.3492 11.037,-11.5597 11.037,-20.5039 0,-4.2593 -2.0362,-8.8889 -4.2373,-12.4591 -1.944,-3.1541 -5.2339,-7.3372 -8.8296,-9.5902 l 4.0184,-8.0342 3.0081,3.9396 -4.123,3.9526 11.3275,0 0,-4.1811 9.8884,6.8307 -1.0848,-10.9234 10.1959,8.5556 -0.2038,-5.7935 c -0.2058,-5.8413 -1.9743,-10.9666 -4.8798,-15.9879 -1.1937,-2.0622 -2.5285,-4.0252 -3.888,-5.98 -0.8102,-1.165 -1.6365,-2.3318 -2.4168,-3.5238 l 18.782,-21.3584 c 0.2486,0.1298 0.5094,0.2658 0.7949,0.4096 1.6974,0.8543 3.2547,1.106 5.1477,1.106 5.4479,0 7.7057,-10.3206 7.2221,-14.5774 l -1.9899,-22.2871 11.1929,4.6791 -10.3541,-17.949 0,-13.9132 -2.198,-14.7776 9.5,-12.8384 3.3911,0.4975 0.7517,-0.404 c 0.7132,-0.3835 1.4695,-0.6701 2.2567,-0.8603 6.0755,-1.468 13.2055,2.7598 17.6255,6.55 3.3996,2.9149 7.8205,7.9438 9.455,12.7885 l -8.4784,7.9076 -0.167,0.8024 c -0.576,2.7712 -1.6738,6.6518 -4.3846,8.1199 -1.9752,1.0698 -4.2038,0.8901 -6.1322,2.3638 -1.819,1.3901 -2.3389,3.4977 -2.3389,5.6869 l 0,7.7952 2.0778,0 c 0.6446,0.7186 1.4162,1.2569 2.2797,1.6835 l -0.7708,3.1011 7.9832,0 0.2821,-0.7775 c 2.0208,-0.1723 4.0609,-0.6092 5.8082,-1.6132 0.7061,-0.4059 1.3189,-0.8796 1.9224,-1.4224 0.2846,-0.2557 0.5998,-0.5774 0.9116,-0.7957 0.2291,-0.1599 0.4264,-0.1758 0.7073,-0.1758 l 11.4851,0 c -3.5526,8.4606 -2.4712,17.0879 2.7791,25.3491 11.8724,18.6823 30.2743,27.6914 51.3774,31.7056 l 12.8239,2.4395 -10.7824,-7.0376 18.7543,7.1084 0.3886,0.0244 c 2.6476,0.1667 5.298,0.2914 7.9495,0.3844 l 8.8914,0.3112 -0.5184,-0.354 0.4,0.1564 0.5714,-0.0362 c 6.8783,-0.438 13.9099,-2.056 20.3944,-4.3634 l 3.9703,-1.4128 -3.5278,-3.3316 c 1.4451,0.7626 2.9393,1.4327 4.4669,2.0061 l 1.0102,0.3793 0.9794,-0.4527 c 11.0035,-5.0885 21.8673,-13.2055 27.0011,-24.5015 3.7027,-8.1468 3.8546,-16.7239 1.1892,-25.2077 -0.3365,-1.0723 -0.7175,-2.1285 -1.1415,-3.1669" />
      <path
         inkscape:connector-curvature="0"
         id="path3418"
         style="fill:#3b150b;fill-opacity:1;fill-rule:evenodd;stroke:none"
         d="m 250.0877,154.3164 -2.3272,-15.6453 11.0546,-14.9391 4.0756,0.5984 c 12.6791,-6.8156 32.883,11.7774 33.7513,23.4675 l -0.8878,-1.338 -8.4237,7.8565 c -3.3472,16.0963 -12.8022,7.113 -12.8022,15.6453 l 0,5.2152 0.8297,0 c 0.6985,1.3393 1.8995,2.031 3.826,2.6075 -0.0567,0.7589 -0.1766,1.4828 -0.349,2.177 l 2.8749,0 0.2483,-0.6848 c 8.8237,-0.1891 7.3097,-4.0997 11.1918,-4.0997 l 15.6773,0 c -4.6488,7.8193 -5.4241,16.808 0.7645,26.5456 11.836,18.6256 30.2227,26.8528 49.682,30.5543 l -19.7842,-12.9121 40.6486,15.4069 c 2.6467,0.1667 5.2769,0.2894 7.8777,0.3804 -6.8505,-4.6814 -15.9429,-11.5319 -23.1831,-19.2436 12.189,10.3346 24.3921,16.2386 32.2733,19.3247 6.0735,-0.3864 12.9322,-1.8131 19.6931,-4.2191 l -23.3164,-22.0176 c 0,0 10.137,3.9501 17.8509,11.6028 4.1162,4.0842 8.7344,6.4106 12.1471,7.6921 18.4084,-8.513 33.7555,-24.4913 26.8112,-46.595 -0.7257,-2.3123 -1.6504,-4.4813 -2.7417,-6.5194 l 20.2011,0 0,-5.2152 -110.3372,0 c -0.2647,-1.8477 -13.8928,-23.0049 -16.0772,-23.9925 -10.2841,-4.6522 -20.9254,6.6439 -24.91,-12.5127 l 4.6108,-1.4632 -11.5937,-35.0413 c 0,0 -8.9748,-17.9192 -18.6216,-22.1647 l -9.3107,-6.5183 -5.8195,-1.303 -4.5885,-1.5886 5.7526,-21.8792 5.1667,-40.6681 -184.8007,0 0.6596,5.4233 c -5.0184,1.974 -7.1008,9.907 -7.2411,16.992 L 84.8733,29.234 80.8106,24.391 C 74.3774,24.59 64.385,38.3363 60.3805,43.4982 l -4.4963,3.9348 -1.3232,5.1911 -1.1642,3.9115 -1.1634,7.8228 0,3.9106 0,6.5183 c 0.383,19.2694 16.5476,41.4612 27.2331,50.3266 22.5694,18.7245 6.9468,25.418 41.4337,34.4183 l 3.7057,4.1513 c -0.3475,0.6452 -0.7523,1.6174 -1.2739,3.081 -2.5021,7.0228 -10.5375,9.9853 -16.3978,17.5388 -0.9706,4.6664 -2.3278,6.1254 -2.3278,11.7331 0,12.2239 8.0231,10.431 18.6222,10.431 l -7.3636,14.1015 c -4.3104,-0.9845 -5.4357,-3.6723 -10.0944,-3.6723 l -3.4915,0 c -9.8611,0 -12.8021,13.3067 -12.8021,24.7714 -6.5948,1.7203 -15.1305,13.1176 -15.1305,20.8599 0,24.7938 14.2866,43.0242 37.243,43.0242 l 12.8027,0 c 1.0145,13.6562 18.1063,31.2897 31.4235,31.2897 l 6.9831,0 c 17.934,0 18.7682,-14.9542 24.9798,-21.56 4.507,-4.7929 22.7381,-2.7559 22.7381,-24.0713 0,-7.7323 -8.4118,-19.1988 -13.9663,-20.8596 l 6.3439,-12.6847 0.6381,-1.4667 6.9738,9.1341 -1.1534,1.1055 2.3281,0 0,-6.5191 9.3506,6.4593 -1.1602,-11.681 10.6069,8.8999 c -0.4152,-11.7924 -7.7391,-19.0238 -11.8145,-25.8409 l 20.8219,-23.6781 -1.0361,-1.0936 c 4.0646,1.0608 3.9187,2.6073 8.1474,2.6073 2.6971,0 5.142,-7.6382 4.6548,-11.7337 l -2.3279,-26.0748 0.1381,-0.7738 c 0.3546,0.2574 0.6967,0.5182 1.0258,0.7738 l 6.8831,2.8775 -5.9181,-10.2597 -0.965,0.8634 0,-16.9492 z" />
      <path
         inkscape:connector-curvature="0"
         id="path3420"
         style="fill:#1b1615;fill-opacity:1;fill-rule:nonzero;stroke:none"
         d="m 193.6687,355.1649 12.7978,4.6579 -6.2974,17.3021 14.8495,5.4049 -2.4692,6.7838 -14.8493,-5.4048 -3.9192,10.7671 15.8264,5.7606 -2.5818,7.0948 -28.6248,-10.4184 15.268,-41.948 z m 66.2862,22.017 13.155,3.5249 -4.6111,17.2091 2.0086,0.5383 c 1.4363,0.3963 2.6926,0.5273 3.7916,0.3762 1.0962,-0.1406 2.1047,-0.6245 3.0093,-1.4564 0.9215,-0.8275 1.8088,-2.064 2.6654,-3.72 0.7829,-1.5159 1.5591,-2.942 2.3579,-4.2482 0.7786,-1.2997 1.5256,-2.4137 2.1988,-3.3191 0.6758,-0.9159 1.2186,-1.5361 1.6345,-1.8819 l 13.7579,3.6864 c -0.413,0.3351 -0.9102,0.853 -1.4956,1.5647 -0.566,0.7059 -1.2055,1.5514 -1.8785,2.5254 -0.6707,0.963 -1.3447,2.0053 -2.0554,3.1176 -0.6911,1.106 -1.3683,2.2274 -2.0259,3.3426 -1.2421,2.1586 -2.7128,3.7647 -4.3761,4.816 -1.6628,1.0514 -3.7194,1.5631 -6.1555,1.5503 l -0.0343,0.1281 c 2.0963,1.2816 3.7834,2.6825 5.0321,4.1826 1.2654,1.5046 2.105,3.0551 2.5206,4.6522 0.4152,1.597 0.426,3.1654 0.0116,4.7114 -0.3147,1.2413 -0.7912,2.348 -1.4088,3.314 -0.6202,0.9763 -1.4522,1.8048 -2.501,2.5067 -1.0321,0.7061 -2.3457,1.2569 -3.9133,1.6826 -1.6594,0.4355 -3.5073,0.6376 -5.5241,0.5999 -2.0004,-0.0332 -4.1278,-0.2605 -6.3887,-0.6605 -2.2604,-0.4 -4.5959,-0.923 -7.02,-1.584 -2.5439,-0.6817 -5.0176,-1.4244 -7.4552,-2.2374 -2.4366,-0.813 -4.6587,-1.6254 -6.6824,-2.442 l 11.3826,-42.4795 z m 3.367,40.0547 c 0.3424,0.1947 0.7939,0.3841 1.368,0.5837 0.5581,0.1953 1.1573,0.3673 1.7767,0.5334 1.9556,0.4666 3.5895,0.5962 4.9402,0.3751 1.3346,-0.2254 2.4217,-0.7339 3.2083,-1.5288 0.8067,-0.801 1.3824,-1.8124 1.7002,-3.0642 0.3399,-1.2688 0.294,-2.5041 -0.121,-3.7009 -0.434,-1.1906 -1.224,-2.2595 -2.3891,-3.2003 -1.1792,-0.9556 -2.7226,-1.6895 -4.6275,-2.2114 l -2.4103,-0.6457 -3.4455,12.8591 z m 64.5261,21.238 8.5176,-43.8202 13.369,2.5985 -8.5175,43.8202 -13.3691,-2.5985 z m 60.1915,-33.9735 c 0.8481,-0.182 1.9669,-0.303 3.3783,-0.3835 1.4097,-0.0692 2.9849,-0.0709 4.7251,-0.005 1.7402,0.0661 3.5543,0.2319 5.426,0.4836 3.3787,0.4862 6.4231,1.2371 9.1307,2.2643 2.6924,1.0137 4.9842,2.2612 6.8446,3.7154 1.8586,1.465 3.2232,3.0835 4.0909,4.8776 0.885,1.7966 1.1764,3.7103 0.9091,5.7348 -0.2013,1.5548 -0.8107,3.0296 -1.8431,4.4005 -1.0157,1.3734 -2.5534,2.6061 -4.5816,3.7145 -2.0438,1.095 -4.6769,2.0293 -7.9144,2.7782 -2.5877,0.6061 -4.6071,1.1585 -6.0973,1.6736 -1.491,0.5261 -2.5489,1.0797 -3.2119,1.6889 -0.6613,0.5981 -1.0279,1.3379 -1.1302,2.1929 -0.1123,0.7979 0.0907,1.5956 0.6112,2.3711 0.5385,0.7782 1.4022,1.4792 2.6121,2.0841 1.1911,0.6131 2.7564,1.0559 4.6763,1.3371 1.9063,0.2565 3.6264,0.3424 5.1437,0.2545 1.4999,-0.0901 2.7845,-0.2661 3.8194,-0.5332 l 1.12,7.7151 c -0.7075,0.1791 -1.6353,0.3053 -2.7828,0.3781 -1.1316,0.0859 -2.4295,0.1043 -3.8576,0.0598 -1.4457,-0.047 -2.9319,-0.178 -4.4938,-0.3977 -3.6017,-0.5173 -6.7099,-1.3107 -9.3444,-2.3609 -2.6328,-1.0613 -4.7653,-2.3196 -6.4344,-3.769 -1.6684,-1.4496 -2.8474,-3.02 -3.537,-4.7109 -0.707,-1.6934 -0.9352,-3.4308 -0.6846,-5.2129 0.1718,-1.3467 0.7954,-2.6748 1.8709,-3.9728 1.0763,-1.309 2.664,-2.5239 4.7806,-3.6419 2.1189,-1.1293 4.8424,-2.084 8.1564,-2.878 2.0682,-0.523 3.8194,-1.0349 5.2376,-1.5378 1.4366,-0.5117 2.5367,-1.1152 3.3335,-1.8057 0.7787,-0.682 1.2504,-1.5522 1.3995,-2.6124 0.1366,-0.9728 -0.1038,-1.876 -0.7013,-2.7292 -0.5993,-0.8422 -1.5627,-1.5795 -2.9115,-2.1926 -1.3473,-0.6242 -3.0665,-1.0888 -5.1582,-1.3941 -1.2869,-0.1808 -2.6532,-0.2948 -4.0629,-0.3481 -1.4286,-0.0448 -2.8119,-0.0385 -4.1354,0.0431 -1.3224,0.0709 -2.4792,0.2089 -3.4694,0.4042 l -0.9141,-7.6861 z m 69.5415,7.164 c 0.8376,-0.2262 1.9485,-0.4059 3.3542,-0.5601 1.4037,-0.1429 2.9761,-0.2271 4.7177,-0.252 1.7416,-0.0247 3.562,0.0456 5.4445,0.1993 3.399,0.3084 6.4786,0.8991 9.2364,1.7832 2.7414,0.8717 5.0956,1.997 7.0294,3.352 1.9329,1.3657 3.3806,2.9109 4.341,4.6568 0.9773,1.7478 1.3685,3.6436 1.2075,5.6794 -0.1193,1.5631 -0.6511,3.068 -1.6103,4.491 -0.9423,1.4247 -2.4135,2.7363 -4.381,3.9492 -1.9837,1.2005 -4.5643,2.2711 -7.7581,3.1887 -2.5518,0.7407 -4.54,1.3978 -6.0013,1.9902 -1.4612,0.6035 -2.4885,1.2115 -3.1189,1.8547 -0.6293,0.6319 -0.9564,1.3901 -1.0143,2.249 -0.0703,0.8031 0.1741,1.5888 0.7351,2.3361 0.5782,0.7489 1.4777,1.4037 2.717,1.9442 1.2217,0.55 2.808,0.9105 4.7401,1.0905 1.9173,0.1568 3.6394,0.1522 5.15,-0.0147 1.4932,-0.1687 2.7666,-0.4116 3.7865,-0.7325 l 1.5222,7.6462 c -0.6973,0.2157 -1.6172,0.3903 -2.7593,0.523 -1.1256,0.1451 -2.4205,0.2313 -3.8491,0.2616 -1.4463,0.0286 -2.9373,-0.0244 -4.5085,-0.1618 -3.6236,-0.3283 -6.7689,-0.9579 -9.4553,-1.8686 -2.6847,-0.9222 -4.8801,-2.0674 -6.6226,-3.4274 -1.7419,-1.3601 -3.0016,-2.8667 -3.7788,-4.519 -0.7949,-1.6543 -1.1135,-3.3775 -0.9567,-5.1701 0.1015,-1.3541 0.6545,-2.7128 1.6605,-4.0655 1.0066,-1.3634 2.5285,-2.6597 4.5839,-3.8871 2.0566,-1.2385 4.7262,-2.3346 7.994,-3.3007 2.0378,-0.6307 3.7604,-1.2333 5.1503,-1.8099 1.4079,-0.5862 2.4743,-1.2464 3.2343,-1.9777 0.7418,-0.7217 1.1673,-1.6155 1.2606,-2.6819 0.0859,-0.9788 -0.2016,-1.868 -0.8428,-2.6886 -0.6423,-0.8099 -1.6432,-1.4959 -3.022,-2.0376 -1.3785,-0.5527 -3.1195,-0.9269 -5.2245,-1.1219 -1.2946,-0.1134 -2.6649,-0.1557 -4.0754,-0.135 -1.4292,0.0301 -2.8103,0.1086 -4.1278,0.2594 -1.3167,0.1397 -2.4647,0.3385 -3.4432,0.5851 l -1.3153,-7.6275 z m 74.1591,3.1382 13.6168,0.2379 -0.2588,14.8337 3.0549,3.6966 10.5097,-18.2982 14.9687,0.2614 -16.4489,24.9511 15.4616,19.6787 -15.0724,-0.2631 -9.1057,-14.4672 c -0.5551,-0.97 -1.0925,-1.9511 -1.6121,-2.9316 -0.5207,-0.9807 -1.0582,-1.9508 -1.6141,-2.8876 l -0.3118,-0.005 -0.35,20.065 -13.6171,-0.2378 0.7792,-44.6335 z m 108.1338,25.4838 -15.8848,0.8325 0.5369,10.2518 16.8194,-0.8816 0.3951,7.5402 -30.4197,1.5942 -2.3366,-44.5791 31.5621,-1.6543 0.3951,7.5402 -17.9611,0.9414 0.6304,12.0376 15.8851,-0.8323 0.3781,7.2094 z m 51.4707,-30.7806 1.0454,9.9459 c 0.4547,4.4924 0.7653,8.4442 0.9326,11.8565 0.1678,3.4231 0.2577,6.2663 0.269,8.5292 l 0.2066,-0.0216 c 0.3087,-1.0423 0.6954,-2.171 1.1427,-3.3834 0.4476,-1.2127 0.9272,-2.4503 1.438,-3.725 0.5289,-1.2657 1.0443,-2.4965 1.5979,-3.6978 0.5357,-1.1996 1.0465,-2.3077 1.5503,-3.3151 l 8.8772,-17.9819 12.4078,-1.3039 4.6661,44.3956 -11.8902,1.2498 -1.0315,-9.8146 c -0.2701,-2.7352 -0.4623,-5.3898 -0.5734,-7.9424 -0.1131,-2.5631 -0.1693,-4.9215 -0.1897,-7.1059 -0.0195,-2.1733 -0.0244,-4.0485 -0.0533,-5.6441 l -0.2066,0.0218 c -0.3986,1.0188 -0.8391,2.1306 -1.3567,3.3393 -0.5009,1.1959 -1.0335,2.4284 -1.5811,3.6847 -0.5661,1.2473 -1.1019,2.4469 -1.6413,3.6133 -0.5409,1.1557 -1.0412,2.1963 -1.5015,3.1213 l -8.9255,18.5195 -12.4069,1.3043 -4.6664,-44.396 11.8905,-1.2495 z m 92.2325,-12.6295 3.3234,17.0989 20.605,23.7257 -13.8798,2.698 -6.0786,-9.479 c -0.9156,-1.4412 -1.7995,-2.9002 -2.6533,-4.3869 -0.8521,-1.4763 -1.6378,-2.9767 -2.3556,-4.4904 l -0.2046,0.04 c -0.1919,1.7351 -0.4584,3.4514 -0.7804,5.1556 -0.324,1.6937 -0.6965,3.318 -1.0857,4.8555 l -2.5585,11.3601 -14.2875,2.7771 9.8473,-29.982 -3.2607,-16.774 13.369,-2.5986 z m 83.5912,8.6981 -15.3646,4.1171 2.6572,9.9161 16.2683,-4.3591 1.9542,7.293 -29.4237,7.884 -11.5537,-43.1192 30.5283,-8.1799 1.9542,7.2932 -17.3733,4.6551 3.1201,11.6436 15.3647,-4.1171 1.8683,6.9732 z m -3.981,29.7287 -10.1721,-5.0227 9.3396,-2.5027 14.1882,3.9466 -13.3557,3.5788 z m 36.7758,-65.719 12.7976,-4.6579 6.0937,16.7417 1.9539,-0.7109 c 1.4037,-0.4995 2.5081,-1.1129 3.3219,-1.8669 0.8169,-0.7438 1.3657,-1.7187 1.6296,-2.9191 0.2801,-1.2062 0.298,-2.7281 0.0496,-4.5757 -0.2281,-1.6912 -0.4101,-3.3047 -0.5048,-4.8325 -0.1083,-1.5115 -0.1349,-2.8523 -0.1029,-3.9802 0.0286,-1.1378 0.1176,-1.9573 0.2594,-2.4789 l 13.3843,-4.8716 c -0.146,0.5114 -0.2562,1.2209 -0.3277,2.1399 -0.0586,0.9025 -0.0972,1.9621 -0.0901,3.1459 0.003,1.1735 0.0485,2.414 0.1046,3.7326 0.0683,1.3023 0.1565,2.6096 0.2577,3.9002 0.2205,2.4806 -0.063,4.6398 -0.8224,6.4548 -0.7591,1.815 -2.1501,3.4141 -4.1527,4.8008 l 0.0448,0.1244 c 2.4522,-0.1525 4.6383,0.0272 6.5213,0.54 1.8995,0.5068 3.4767,1.2952 4.7333,2.3649 1.2558,1.0701 2.164,2.3491 2.7117,3.8532 0.4544,1.1973 0.699,2.3768 0.7469,3.5223 0.0516,1.156 -0.1542,2.3117 -0.6112,3.4883 -0.4405,1.1705 -1.2004,2.3749 -2.2405,3.6227 -1.1097,1.3085 -2.5072,2.5339 -4.1808,3.6598 -1.6577,1.1203 -3.5311,2.1546 -5.612,3.1235 -2.0812,0.9689 -4.2942,1.8799 -6.6592,2.7289 -2.4749,0.9009 -4.9269,1.7113 -7.3902,2.4432 -2.4624,0.7316 -4.7486,1.3408 -6.8746,1.8326 l -15.0412,-41.326 z m 25.7327,30.8798 c 0.3917,-0.0369 0.8702,-0.1406 1.4553,-0.3067 0.5686,-0.1599 1.1585,-0.3629 1.7612,-0.5823 1.8697,-0.7393 3.2822,-1.5704 4.2621,-2.5262 0.9638,-0.9496 1.5622,-1.9899 1.751,-3.0923 0.2015,-1.1189 0.093,-2.2777 -0.3648,-3.4852 -0.4496,-1.2345 -1.1954,-2.2198 -2.2218,-2.9625 -1.0386,-0.726 -2.2992,-1.1483 -3.7928,-1.2509 -1.5137,-0.1066 -3.1992,0.1777 -5.059,0.843 l -2.3445,0.8532 4.5533,12.5099 z" />
      <path
         inkscape:connector-curvature="0"
         id="path3422"
         style="fill:none;stroke:#231f20;stroke-width:0.56690001;stroke-linecap:butt;stroke-linejoin:miter;stroke-miterlimit:22.92558479;stroke-dasharray:none;stroke-opacity:1"
         d="m 228.7142,413.418 0,0.0134 -1.1426,0.002 c 0.3821,-8e-4 0.7611,-0.0136 1.1426,-0.0156 z" />
      <path
         inkscape:connector-curvature="0"
         id="path3424"
         style="fill:#1b1615;fill-opacity:1;fill-rule:nonzero;stroke:none"
         d="m 326.9778,17.2502 7.3604,0 0,12.4679 2.7783,4.0235 8.0912,-16.4914 8.6278,0 -11.4061,21.932 10.8698,16.2649 -9.1636,0 -7.4092,-12.6944 c -0.3897,-0.68 -0.7798,-1.3604 -1.1616,-2.0497 -0.3901,-0.6991 -0.7637,-1.4074 -1.1291,-2.1442 l -0.0975,0 0,16.8883 -7.3604,0 0,-38.1969 z m 57.7525,16.3783 c 0.009,1.6529 -0.1621,3.2018 -0.5117,4.6472 -0.3492,1.4544 -0.926,2.7201 -1.7223,3.8253 -0.8042,1.105 -1.8683,1.9644 -3.217,2.588 -1.3405,0.6234 -2.9977,0.9445 -4.9799,0.9539 -1.446,-0.0094 -2.77,-0.1417 -3.9643,-0.4062 -1.1863,-0.2645 -2.226,-0.5856 -3.1198,-0.9635 -0.8935,-0.3776 -1.6248,-0.7554 -2.1773,-1.1239 l 1.3649,-5.554 c 0.5281,0.3875 1.1455,0.7368 1.8604,1.0486 0.7069,0.3118 1.4706,0.5666 2.2748,0.7557 0.8124,0.1888 1.6248,0.2928 2.4451,0.2928 0.91,-0.0096 1.6492,-0.1227 2.2179,-0.3495 0.5768,-0.2268 1.0156,-0.5289 1.3243,-0.8878 0.3087,-0.3685 0.5199,-0.7557 0.6336,-1.1806 0.1139,-0.4159 0.1706,-0.8218 0.1627,-1.2093 l 0,-0.3399 c -2.1124,0 -4.0298,-0.2174 -5.7436,-0.6423 -1.7144,-0.4346 -3.1847,-1.0862 -4.4115,-1.9551 -1.2266,-0.8784 -2.1773,-1.974 -2.8353,-3.306 -0.6582,-1.3317 -0.991,-2.8996 -0.9992,-4.6942 0,-1.1146 0.1789,-2.1818 0.5281,-3.1926 0.341,-1.0106 0.853,-1.9174 1.5109,-2.7108 0.6664,-0.8028 1.4706,-1.4261 2.4211,-1.889 0.9504,-0.4629 2.031,-0.699 3.2414,-0.7084 1.4215,0 2.7215,0.2928 3.8914,0.8688 1.1616,0.5763 2.1447,1.4264 2.9327,2.5314 l 0.1463,0 0.4385,-2.7769 6.6781,0 c -0.0975,0.5196 -0.1709,1.124 -0.2276,1.8324 -0.0567,0.7083 -0.0975,1.4734 -0.1298,2.3048 -0.0244,0.8218 -0.0329,1.6716 -0.0329,2.55 l 0,9.6911 z m -7.1651,-6.2906 c 0,-0.2551 -0.008,-0.5102 -0.0323,-0.7557 -0.0244,-0.2551 -0.0652,-0.4913 -0.114,-0.7178 -0.1704,-0.595 -0.4385,-1.1239 -0.8124,-1.6058 -0.3736,-0.4722 -0.8286,-0.8501 -1.3485,-1.1333 -0.5198,-0.2834 -1.0805,-0.4252 -1.6897,-0.4345 -0.5607,0 -1.0562,0.1227 -1.495,0.3588 -0.4385,0.2455 -0.788,0.6047 -1.0397,1.0956 -0.252,0.4819 -0.3819,1.0959 -0.3898,1.8326 0.0159,1.0863 0.3249,1.9551 0.9258,2.5974 0.6095,0.6327 1.4301,1.0956 2.4698,1.3694 1.0398,0.2741 2.2096,0.4062 3.5258,0.3969 l 0,-3.0036 z m -1.9497,29.696 -4.1919,-8.6142 5.0692,0 5.9468,8.6142 -6.8241,0 z m 20.1226,-12.071 8.6763,-27.7127 7.4092,0 8.871,27.7127 -7.7987,0 -3.0708,-12.8645 c -0.2681,-1.1809 -0.5037,-2.3236 -0.7149,-3.4194 -0.2114,-1.0956 -0.4062,-2.2006 -0.6012,-3.3248 l -0.1463,0 c -0.1868,1.0959 -0.39,2.2008 -0.6094,3.3061 -0.2109,1.1049 -0.4629,2.2572 -0.7554,3.4381 l -3.2171,12.8645 -8.0427,0 z m 56.9242,-16.6051 c 0.0567,0.3212 0.1054,0.7841 0.1624,1.3791 0.0488,0.6046 0.0811,1.2753 0.0811,2.0213 0,1.3791 -0.1219,2.7392 -0.3654,4.0709 -0.2438,1.332 -0.6338,2.588 -1.1537,3.7593 -0.5281,1.1713 -1.2022,2.2102 -2.039,3.1076 -0.837,0.8972 -1.8362,1.5962 -3.0058,2.1061 -1.1699,0.5196 -2.5268,0.7748 -4.0623,0.7841 -1.6572,-0.0093 -3.1357,-0.3022 -4.4354,-0.8595 -1.2997,-0.5666 -2.429,-1.3413 -3.3798,-2.3235 -0.9584,-0.9825 -1.7467,-2.1064 -2.372,-3.3625 -0.6256,-1.2656 -1.0885,-2.5976 -1.3972,-4.005 -0.3007,-1.4072 -0.4549,-2.8242 -0.4549,-4.241 0.008,-2.8995 0.5116,-5.4121 1.5029,-7.5089 0.991,-2.1062 2.429,-3.731 4.322,-4.8739 1.8927,-1.1333 4.1916,-1.7096 6.8969,-1.7283 1.6166,0 3.1522,0.1417 4.6063,0.4345 1.4542,0.2832 2.7947,0.7271 4.0213,1.3221 l -0.9746,5.8374 c -0.9915,-0.3968 -2.0231,-0.699 -3.0872,-0.8974 -1.0726,-0.1982 -2.2343,-0.2929 -3.4934,-0.2929 -0.8694,0 -1.6977,0.1041 -2.486,0.3212 -0.7798,0.2174 -1.4865,0.5386 -2.1042,0.9729 -0.6171,0.4345 -1.1128,0.9824 -1.4864,1.6435 -0.3819,0.6613 -0.593,1.4451 -0.65,2.3329 l 15.3544,0 z m -15.4032,5.8941 c 0.0488,0.576 0.1624,1.19 0.3575,1.8323 0.195,0.6423 0.4714,1.2563 0.8368,1.8229 0.3656,0.5763 0.8288,1.0389 1.3813,1.3981 0.5604,0.3589 1.2265,0.5477 2.0063,0.557 0.8448,-0.0093 1.5435,-0.2078 2.096,-0.576 0.5442,-0.3779 0.9748,-0.8595 1.2835,-1.4451 0.3005,-0.5763 0.5202,-1.1903 0.6421,-1.823 0.1218,-0.6423 0.1785,-1.2279 0.1706,-1.7662 l -8.7741,0 z m 5.9956,22.782 -4.1922,-8.6142 5.0695,0 5.9465,8.6142 -6.8238,0 z m 20.4148,-39.7837 20.7162,0 0,6.8573 -11.4548,0 0,0.1134 c 0.6743,0.7651 1.3325,1.5775 1.9661,2.437 0.6335,0.8594 1.2835,1.7282 1.9335,2.6067 l 7.1654,10.4845 0,5.2138 -19.4975,0 0,-6.8573 10.4309,0 0,-0.1134 c -0.6497,-0.8028 -1.2671,-1.5962 -1.8601,-2.3709 -0.5933,-0.7744 -1.2186,-1.6056 -1.893,-2.503 l -7.5067,-10.9375 0,-4.9306 z m 44.0558,28.3927 c -1.9332,-0.0094 -3.6799,-0.3495 -5.2478,-1.0389 -1.5599,-0.68 -2.9004,-1.6625 -4.0215,-2.9472 -1.1208,-1.2844 -1.9905,-2.8335 -2.5914,-4.6468 -0.6013,-1.8043 -0.9017,-3.8444 -0.91,-6.1019 0.008,-2.2385 0.3249,-4.2502 0.9505,-6.0072 0.6177,-1.7662 1.4868,-3.2587 2.5997,-4.4863 1.1211,-1.2377 2.4207,-2.1725 3.9157,-2.8149 1.495,-0.6423 3.1113,-0.9634 4.8663,-0.9728 1.2838,0 2.5426,0.1888 3.7613,0.5666 1.2186,0.3779 2.3641,0.9445 3.4285,1.719 1.0559,0.765 1.9902,1.7382 2.8026,2.9188 0.8042,1.171 1.4298,2.5597 1.8927,4.1559 0.4549,1.5962 0.6826,3.4001 0.6908,5.4309 -0.008,2.1064 -0.3008,4.0238 -0.8776,5.7617 -0.5769,1.7379 -1.3972,3.2303 -2.4696,4.496 -1.0644,1.2657 -2.3476,2.2385 -3.8265,2.9282 -1.4864,0.68 -3.1439,1.0295 -4.9637,1.0389 z m -0.2435,-6.1773 c 0.8368,-0.0093 1.5596,-0.2454 2.1608,-0.7177 0.5931,-0.4722 1.0888,-1.0959 1.4624,-1.8893 0.3819,-0.7934 0.6582,-1.6716 0.8368,-2.6541 0.1786,-0.9728 0.2679,-1.9834 0.2679,-3.0129 0,-1.6909 -0.1947,-3.1643 -0.5766,-4.4204 -0.3821,-1.2469 -0.9181,-2.2198 -1.6248,-2.9092 -0.7069,-0.699 -1.5437,-1.0485 -2.5265,-1.0578 -1.0562,0.0187 -1.95,0.3778 -2.6728,1.1049 -0.7231,0.718 -1.2674,1.7002 -1.641,2.9469 -0.3739,1.2563 -0.5607,2.6731 -0.5607,4.2789 0,1.0295 0.0893,2.0401 0.2682,3.0226 0.1789,0.9822 0.4632,1.8794 0.8529,2.6728 0.3901,0.803 0.8938,1.4357 1.5112,1.908 0.6174,0.4722 1.3649,0.718 2.2422,0.7273 z m 0.8286,17.5683 -4.1919,-8.6142 5.0692,0 5.9468,8.6142 -6.8241,0 z m 55.2668,-28.6761 c 0.0567,0.3212 0.1054,0.7841 0.1621,1.3791 0.0488,0.6046 0.0814,1.2753 0.0814,2.0213 0,1.3791 -0.1219,2.7392 -0.3654,4.0709 -0.2441,1.332 -0.6339,2.588 -1.1537,3.7593 -0.5281,1.1713 -1.2025,2.2102 -2.039,3.1076 -0.8371,0.8972 -1.8363,1.5962 -3.0061,2.1061 -1.1696,0.5196 -2.5265,0.7748 -4.0621,0.7841 -1.6571,-0.0093 -3.1357,-0.3022 -4.4353,-0.8595 -1.3,-0.5666 -2.4293,-1.3413 -3.3798,-2.3235 -0.9584,-0.9825 -1.7467,-2.1064 -2.372,-3.3625 -0.6256,-1.2656 -1.0885,-2.5976 -1.3972,-4.005 -0.3008,-1.4072 -0.455,-2.8242 -0.455,-4.241 0.008,-2.8995 0.5117,-5.4121 1.5027,-7.5089 0.9912,-2.1062 2.4293,-3.731 4.3219,-4.8739 1.893,-1.1333 4.1919,-1.7096 6.8973,-1.7283 1.6166,0 3.1521,0.1417 4.6063,0.4345 1.4542,0.2832 2.7947,0.7271 4.0212,1.3221 l -0.9748,5.8374 c -0.9913,-0.3968 -2.0228,-0.699 -3.0869,-0.8974 -1.0727,-0.1982 -2.2343,-0.2929 -3.4934,-0.2929 -0.8694,0 -1.6977,0.1041 -2.486,0.3212 -0.7798,0.2174 -1.4865,0.5386 -2.1042,0.9729 -0.6174,0.4345 -1.1129,0.9824 -1.4865,1.6435 -0.3821,0.6613 -0.593,1.4451 -0.65,2.3329 l 15.3545,0 z m -15.4032,5.8941 c 0.0487,0.576 0.1624,1.19 0.3574,1.8323 0.1951,0.6423 0.4714,1.2563 0.8368,1.8229 0.3657,0.5763 0.8286,1.0389 1.3811,1.3981 0.5607,0.3589 1.2268,0.5477 2.0066,0.557 0.8447,-0.0093 1.5435,-0.2078 2.0959,-0.576 0.5443,-0.3779 0.9749,-0.8595 1.2836,-1.4451 0.3004,-0.5763 0.5198,-1.1903 0.6417,-1.823 0.1222,-0.6423 0.1789,-1.2279 0.171,-1.7662 l -8.7741,0 z m 5.9955,22.782 -4.1921,-8.6142 5.0695,0 5.9465,8.6142 -6.8239,0 z M 575.121,18.6103 c 0.9178,-0.576 2.0307,-1.0483 3.3548,-1.4168 1.3243,-0.3682 2.7706,-0.5572 4.3463,-0.5666 2.2748,0.0187 4.1758,0.4062 5.7031,1.1806 1.5191,0.7651 2.6645,1.823 3.4285,3.1737 0.7716,1.3507 1.1534,2.8996 1.1534,4.6565 -0.008,1.3413 -0.2356,2.5407 -0.6826,3.6082 -0.4465,1.0579 -1.1373,2.0024 -2.0795,2.8241 -0.9425,0.8122 -2.1693,1.5206 -3.672,2.1252 -0.9669,0.3872 -1.7303,0.7461 -2.2992,1.0672 -0.5604,0.3212 -0.9666,0.6517 -1.2021,0.9825 -0.2438,0.3399 -0.3575,0.7367 -0.3496,1.1806 0.008,0.6894 0.252,1.2277 0.7393,1.6152 0.4876,0.3872 1.1781,0.5854 2.088,0.595 0.6741,-0.0096 1.3405,-0.0944 1.9902,-0.2551 0.65,-0.1701 1.2512,-0.3779 1.8034,-0.614 0.5525,-0.2455 1.0075,-0.4816 1.3731,-0.7177 l 1.2674,5.9505 c -0.7475,0.4439 -1.6897,0.8217 -2.8434,1.1429 -1.1535,0.3212 -2.429,0.4816 -3.8345,0.5006 -1.4785,-0.0094 -2.8108,-0.2361 -4.005,-0.6897 -1.186,-0.4532 -2.2099,-1.0956 -3.0546,-1.9173 -0.8533,-0.8218 -1.503,-1.785 -1.9497,-2.8902 -0.455,-1.105 -0.6826,-2.3142 -0.6905,-3.627 -0.0244,-1.1052 0.1947,-2.1631 0.6417,-3.1926 0.455,-1.0296 1.186,-1.9741 2.1935,-2.8525 1.0074,-0.8782 2.3397,-1.6339 3.9886,-2.2856 0.902,-0.3495 1.6087,-0.68 2.1124,-0.9918 0.5037,-0.3022 0.8529,-0.6327 1.0559,-0.9822 0.2035,-0.3592 0.3007,-0.7748 0.2925,-1.2564 0.008,-0.7177 -0.2355,-1.2656 -0.739,-1.6625 -0.5037,-0.3965 -1.3161,-0.595 -2.4293,-0.6043 -0.7475,0.0093 -1.519,0.1134 -2.3232,0.3115 -0.8124,0.2081 -1.5682,0.4629 -2.291,0.7747 -0.7152,0.3022 -1.3,0.6233 -1.7711,0.9539 l -1.3158,-6.1206 z m 39.5711,0.4535 c 0.6256,-0.4062 1.4298,-0.784 2.4046,-1.1429 0.9751,-0.3589 2.0472,-0.6613 3.2335,-0.8878 1.186,-0.2268 2.4125,-0.3402 3.672,-0.3495 2.2501,0.0093 4.208,0.3305 5.8654,0.9538 1.6651,0.614 3.0382,1.4735 4.1185,2.5691 1.0888,1.0862 1.9015,2.3425 2.4293,3.7689 0.5363,1.4261 0.7962,2.9373 0.7962,4.5525 0,1.7852 -0.3007,3.3911 -0.9099,4.7888 -0.6094,1.4074 -1.5435,2.6541 -2.7947,3.7403 -1.2512,1.0863 -2.8434,2.0401 -4.7769,2.8619 -1.4216,0.614 -2.5832,1.1713 -3.4852,1.6909 -0.9017,0.5099 -1.5599,1.0579 -1.982,1.6339 -0.4226,0.5762 -0.6338,1.2656 -0.6256,2.059 0,0.652 0.1706,1.2564 0.5199,1.8136 0.3492,0.5573 0.8855,1.0012 1.5922,1.3414 0.7067,0.3492 1.5922,0.5193 2.6648,0.5289 1.0559,-0.0096 2.0228,-0.1133 2.9002,-0.3024 0.8693,-0.1982 1.6327,-0.4343 2.2989,-0.7084 0.6582,-0.2832 1.2024,-0.5476 1.6248,-0.8028 l 1.6574,6.914 c -0.9666,0.548 -2.1368,1.0106 -3.5178,1.3694 -1.3728,0.3592 -2.9976,0.548 -4.866,0.5573 -1.9337,-0.0093 -3.664,-0.3021 -5.1913,-0.8688 -1.5273,-0.5763 -2.8352,-1.379 -3.9076,-2.4086 -1.0805,-1.0295 -1.9009,-2.2479 -2.4698,-3.6269 -0.5686,-1.3884 -0.853,-2.8999 -0.8612,-4.5434 0.008,-1.8417 0.3901,-3.4758 1.1376,-4.9019 0.7475,-1.4264 1.7952,-2.6638 3.1521,-3.7216 1.3567,-1.0579 2.9489,-1.9551 4.7769,-2.7108 1.3077,-0.5196 2.3721,-1.0389 3.1845,-1.5585 0.8124,-0.5193 1.4054,-1.0766 1.7708,-1.6812 0.3739,-0.6047 0.5607,-1.3034 0.5525,-2.0875 0,-0.8404 -0.1948,-1.5678 -0.5931,-2.1818 -0.3979,-0.614 -0.983,-1.0956 -1.7546,-1.4357 -0.7719,-0.3399 -1.7305,-0.5196 -2.8678,-0.5196 -1.0641,0.0096 -2.0959,0.123 -3.1116,0.3495 -1.0074,0.2268 -1.9497,0.5289 -2.827,0.8881 -0.8773,0.3588 -1.641,0.7367 -2.2989,1.1426 l -1.5111,-7.0838 z m 33.673,-1.8136 20.7162,0 0,6.8573 -11.4548,0 0,0.1134 c 0.6743,0.7651 1.3325,1.5775 1.9661,2.437 0.6335,0.8594 1.2835,1.7282 1.9335,2.6067 l 7.1654,10.4845 0,5.2138 -19.4975,0 0,-6.8573 10.4309,0 0,-0.1134 c -0.6497,-0.8028 -1.2671,-1.5962 -1.8601,-2.3709 -0.5933,-0.7744 -1.2186,-1.6056 -1.893,-2.503 l -7.5067,-10.9375 0,-4.9306 z m 53.7072,11.1076 c 0.057,0.3212 0.1057,0.7841 0.1624,1.3791 0.0488,0.6046 0.0814,1.2753 0.0814,2.0213 0,1.3791 -0.1222,2.7392 -0.3657,4.0709 -0.2438,1.332 -0.6335,2.588 -1.1537,3.7593 -0.5281,1.1713 -1.2022,2.2102 -2.039,3.1076 -0.8368,0.8972 -1.836,1.5962 -3.0058,2.1061 -1.1699,0.5196 -2.5265,0.7748 -4.0621,0.7841 -1.6571,-0.0093 -3.1359,-0.3022 -4.4356,-0.8595 -1.2997,-0.5666 -2.429,-1.3413 -3.3795,-2.3235 -0.9587,-0.9825 -1.7467,-2.1064 -2.372,-3.3625 -0.6256,-1.2656 -1.0888,-2.5976 -1.3975,-4.005 -0.3005,-1.4072 -0.455,-2.8242 -0.455,-4.241 0.008,-2.8995 0.512,-5.4121 1.503,-7.5089 0.991,-2.1062 2.429,-3.731 4.3219,-4.8739 1.893,-1.1333 4.1919,-1.7096 6.897,-1.7283 1.6169,0 3.1524,0.1417 4.6063,0.4345 1.4545,0.2832 2.795,0.7271 4.0215,1.3221 l -0.9748,5.8374 c -0.9913,-0.3968 -2.0228,-0.699 -3.0872,-0.8974 -1.0724,-0.1982 -2.234,-0.2929 -3.4931,-0.2929 -0.8694,0 -1.698,0.1041 -2.486,0.3212 -0.7798,0.2174 -1.4865,0.5386 -2.1042,0.9729 -0.6174,0.4345 -1.1129,0.9824 -1.4865,1.6435 -0.3821,0.6613 -0.5933,1.4451 -0.65,2.3329 l 15.3542,0 z m -15.4029,5.8941 c 0.0487,0.576 0.1624,1.19 0.3574,1.8323 0.1951,0.6423 0.4712,1.2563 0.8368,1.8229 0.3657,0.5763 0.8286,1.0389 1.3811,1.3981 0.5604,0.3589 1.2265,0.5477 2.0066,0.557 0.8447,-0.0093 1.5435,-0.2078 2.0959,-0.576 0.5443,-0.3779 0.9749,-0.8595 1.2833,-1.4451 0.3007,-0.5763 0.5201,-1.1903 0.642,-1.823 0.1219,-0.6423 0.1789,-1.2279 0.1707,-1.7662 l -8.7738,0 z m 28.3113,-17.0017 7.4092,0 0,15.9815 c 0,0.4062 0.0161,0.7934 0.0487,1.1619 0.0324,0.3776 0.0976,0.7084 0.1951,0.9916 0.1786,0.5385 0.4306,1.0579 0.7716,1.5397 0.3333,0.491 0.7475,0.8972 1.2512,1.209 0.5037,0.3115 1.0967,0.4723 1.779,0.4816 0.8935,-0.0093 1.6169,-0.2644 2.1691,-0.765 0.5524,-0.5006 0.9504,-1.1997 1.2106,-2.0968 0.2518,-0.8975 0.3819,-1.9457 0.3737,-3.1454 l 0,-15.3581 7.4089,0 0,16.3783 c -0.008,2.0401 -0.2194,3.8064 -0.65,5.3082 -0.4224,1.5018 -1.0154,2.7485 -1.787,3.731 -0.7636,0.9822 -1.6656,1.7189 -2.7054,2.2008 -1.0318,0.4816 -2.1608,0.7177 -3.3877,0.7177 -0.9992,-0.0093 -1.9009,-0.1604 -2.6971,-0.4439 -0.8042,-0.2835 -1.5109,-0.6613 -2.1121,-1.1146 -0.6095,-0.4532 -1.1293,-0.9351 -1.5517,-1.4544 -0.4226,-0.5103 -0.7557,-1.0012 -0.9995,-1.4641 l -0.1463,0 -0.341,3.8537 -6.434,0 c 0.0487,-1.247 0.0975,-2.5974 0.138,-4.0615 0.0326,-1.4641 0.0567,-3.0509 0.0567,-4.7795 l 0,-18.8717 z m 52.4886,40.2937 0,-15.018 -0.0976,0 c -0.5442,0.9445 -1.3566,1.7002 -2.429,2.2575 -1.0805,0.5573 -2.3641,0.8501 -3.859,0.8595 -1.4378,0 -2.7944,-0.3402 -4.0783,-0.9918 -1.2835,-0.6611 -2.4205,-1.6246 -3.412,-2.8996 -0.9989,-1.2657 -1.7708,-2.8148 -2.3394,-4.6471 -0.5605,-1.823 -0.8448,-3.9104 -0.8448,-6.253 0.008,-2.1628 0.2758,-4.1085 0.796,-5.8561 0.5199,-1.7472 1.2509,-3.2397 2.1773,-4.4864 0.9261,-1.2469 2.0064,-2.2008 3.2332,-2.8715 1.235,-0.6706 2.5591,-1.0011 3.9807,-1.0105 1.0318,0 2.0228,0.1794 2.9735,0.5289 0.9502,0.3496 1.8114,0.8689 2.5832,1.5489 0.7719,0.6897 1.4055,1.5491 1.9012,2.5693 l 0.1463,0 0.2923,-4.0238 6.5803,0 c -0.0323,0.633 -0.0649,1.3981 -0.0975,2.2859 -0.0244,0.8878 -0.0488,1.8417 -0.0649,2.8712 -0.0244,1.0296 -0.0326,2.0687 -0.0326,3.117 l 0,32.0196 -7.4089,0 z m 0,-27.9391 c 0,-0.3402 -0.008,-0.6801 -0.0326,-1.0106 -0.0244,-0.3402 -0.065,-0.6613 -0.1137,-0.9731 -0.1542,-0.8215 -0.4306,-1.5395 -0.845,-2.1535 -0.4062,-0.6233 -0.9097,-1.105 -1.5109,-1.4545 -0.6012,-0.3495 -1.2591,-0.5196 -1.9822,-0.5289 -1.0319,0.0093 -1.9256,0.3212 -2.6808,0.9351 -0.7557,0.6234 -1.3405,1.5018 -1.7549,2.6448 -0.4144,1.1333 -0.6256,2.4933 -0.6338,4.0708 0,1.0956 0.1057,2.1251 0.3172,3.0696 0.2191,0.9542 0.536,1.7853 0.9584,2.503 0.4305,0.718 0.9669,1.2847 1.6004,1.6909 0.6418,0.4062 1.3893,0.6043 2.2422,0.614 0.7637,-0.0097 1.4462,-0.1984 2.0472,-0.5857 0.593,-0.3778 1.0885,-0.8784 1.4785,-1.5114 0.3901,-0.6327 0.6662,-1.3317 0.8124,-2.0968 0.0488,-0.2645 0.0732,-0.5289 0.0893,-0.8124 0.008,-0.2832 0.008,-0.5383 0.008,-0.7744 l 0,-3.6269 z m 19.0502,15.3581 8.6763,-27.7127 7.4092,0 8.871,27.7127 -7.799,0 -3.0707,-12.8645 c -0.2682,-1.1809 -0.5035,-2.3236 -0.7146,-3.4194 -0.2115,-1.0956 -0.4063,-2.2006 -0.6013,-3.3248 l -0.1462,0 c -0.1868,1.0959 -0.3901,2.2008 -0.6095,3.3061 -0.2112,1.1049 -0.4629,2.2572 -0.7554,3.4381 l -3.2171,12.8645 -8.0427,0 z m 44.007,-27.7127 0,27.7127 -7.4092,0 0,-27.7127 7.4092,0 z m -3.6558,39.727 c -0.8042,-0.0093 -1.4947,-0.1984 -2.0877,-0.576 -0.5851,-0.3778 -1.0401,-0.8881 -1.3649,-1.5301 -0.3249,-0.6423 -0.4876,-1.3791 -0.4955,-2.2008 0.008,-0.8031 0.1624,-1.5302 0.4793,-2.1725 0.3167,-0.6517 0.7555,-1.1619 1.3323,-1.5491 0.5769,-0.3779 1.2592,-0.576 2.039,-0.5857 0.8288,0.0097 1.5437,0.2078 2.1449,0.5857 0.5928,0.3872 1.0477,0.8974 1.3649,1.5491 0.3246,0.6423 0.4873,1.3694 0.4873,2.1725 -0.0164,0.8217 -0.1871,1.5585 -0.5037,2.2008 -0.3169,0.642 -0.7557,1.1523 -1.3326,1.5301 -0.5766,0.3776 -1.2671,0.5667 -2.0633,0.576 z m 34.8434,-32.6429 c -0.5607,-0.2835 -1.1863,-0.5102 -1.885,-0.6707 -0.6985,-0.1511 -1.4783,-0.2361 -2.3559,-0.2361 -0.9099,0 -1.7546,0.1701 -2.5426,0.5006 -0.7884,0.3402 -1.4786,0.8311 -2.0798,1.4924 -0.593,0.6517 -1.0559,1.4638 -1.3975,2.4273 -0.3328,0.9729 -0.5037,2.0781 -0.5117,3.3438 -0.008,1.5205 0.2438,2.8618 0.7637,4.0331 0.5201,1.1617 1.2591,2.0685 2.226,2.7298 0.9587,0.6517 2.088,0.9915 3.3957,1.0012 0.9669,-0.0097 1.7954,-0.0947 2.4698,-0.2551 0.6823,-0.1605 1.2348,-0.3589 1.6736,-0.595 l 1.1695,6.4037 c -0.5281,0.2268 -1.0964,0.4252 -1.722,0.5857 -0.6338,0.1607 -1.2756,0.2834 -1.95,0.3591 -0.6658,0.0848 -1.324,0.1321 -1.9819,0.1321 -2.2182,-0.0093 -4.1758,-0.3966 -5.8737,-1.1616 -1.698,-0.7651 -3.1278,-1.8136 -4.2732,-3.1643 -1.1537,-1.3508 -2.0308,-2.9092 -2.6159,-4.6849 -0.585,-1.7759 -0.8855,-3.6836 -0.8855,-5.724 0.0162,-2.8995 0.5363,-5.4122 1.5596,-7.5279 1.0318,-2.1158 2.486,-3.7404 4.3708,-4.8926 1.8847,-1.1523 4.1108,-1.7286 6.694,-1.7473 0.9507,0 1.8442,0.0567 2.681,0.1794 0.845,0.1134 1.6004,0.2645 2.2748,0.4629 0.6744,0.1888 1.2268,0.4156 1.6733,0.6611 l -0.8771,6.3473 z m 11.8364,-5.724 c 0.9178,-0.576 2.0307,-1.0483 3.3551,-1.4168 1.324,-0.3682 2.7703,-0.5572 4.3463,-0.5666 2.2746,0.0187 4.1755,0.4062 5.7028,1.1806 1.5191,0.7651 2.6645,1.823 3.4285,3.1737 0.7716,1.3507 1.1534,2.8996 1.1534,4.6565 -0.008,1.3413 -0.2356,2.5407 -0.6823,3.6082 -0.4467,1.0579 -1.1375,2.0024 -2.0798,2.8241 -0.9422,0.8122 -2.1691,1.5206 -3.672,2.1252 -0.9666,0.3872 -1.7302,0.7461 -2.2992,1.0672 -0.5604,0.3212 -0.9666,0.6517 -1.2021,0.9825 -0.2438,0.3399 -0.3575,0.7367 -0.3493,1.1806 0.008,0.6894 0.2518,1.2277 0.739,1.6152 0.4876,0.3872 1.1781,0.5854 2.088,0.595 0.6741,-0.0096 1.3405,-0.0944 1.9902,-0.2551 0.65,-0.1701 1.2512,-0.3779 1.8034,-0.614 0.5525,-0.2455 1.0075,-0.4816 1.3731,-0.7177 l 1.2674,5.9505 c -0.7475,0.4439 -1.6897,0.8217 -2.8434,1.1429 -1.1534,0.3212 -2.429,0.4816 -3.8345,0.5006 -1.4782,-0.0094 -2.8108,-0.2361 -4.005,-0.6897 -1.186,-0.4532 -2.2099,-1.0956 -3.0546,-1.9173 -0.853,-0.8218 -1.503,-1.785 -1.9497,-2.8902 -0.455,-1.105 -0.6823,-2.3142 -0.6905,-3.627 -0.0244,-1.1052 0.1947,-2.1631 0.6417,-3.1926 0.455,-1.0296 1.1861,-1.9741 2.1935,-2.8525 1.0074,-0.8782 2.3397,-1.6339 3.9886,-2.2856 0.902,-0.3495 1.6087,-0.68 2.1124,-0.9918 0.5037,-0.3022 0.8529,-0.6327 1.0559,-0.9822 0.2035,-0.3592 0.3008,-0.7748 0.2928,-1.2564 0.008,-0.7177 -0.2355,-1.2656 -0.7393,-1.6625 -0.5037,-0.3965 -1.3161,-0.595 -2.429,-0.6043 -0.7477,0.0093 -1.5193,0.1134 -2.3235,0.3115 -0.8124,0.2081 -1.5679,0.4629 -2.291,0.7747 -0.7149,0.3022 -1.3,0.6233 -1.7708,0.9539 l -1.3161,-6.1206 z m 30.7485,6.914 c 0,-1.0483 -0.008,-2.0874 -0.0244,-3.1263 -0.0243,-1.0389 -0.0487,-2.0024 -0.0731,-2.8903 -0.0326,-0.8878 -0.0649,-1.6435 -0.0975,-2.2575 l 6.2878,0 0.2925,3.8537 0.0978,0 c 0.5605,-1.0862 1.2184,-1.9647 1.9741,-2.6257 0.7636,-0.6517 1.584,-1.1239 2.4695,-1.4168 0.8774,-0.2928 1.7873,-0.4441 2.7216,-0.4345 1.0967,0 2.1773,0.1984 3.225,0.595 1.0561,0.4062 2.0392,1.0012 2.9571,1.7946 0.9263,0.8028 1.7305,1.804 2.4372,2.9942 0.6987,1.1997 1.2512,2.5974 1.641,4.1936 0.3982,1.5965 0.6012,3.3911 0.6094,5.3839 0.008,2.1347 -0.2276,4.0614 -0.707,5.771 -0.4793,1.7192 -1.1534,3.1927 -2.0307,4.4206 -0.8855,1.2184 -1.9173,2.1629 -3.1116,2.8146 -1.2022,0.6516 -2.5183,0.9825 -3.9481,0.9918 -1.6656,-0.0093 -3.1033,-0.3685 -4.322,-1.0579 -1.2186,-0.699 -2.1773,-1.6435 -2.8922,-2.8525 l -0.0975,0 0,15.8681 -7.4089,0 0,-32.0196 z m 7.4089,7.594 c 0,0.2835 0.008,0.5573 0.0326,0.8124 0.0244,0.2645 0.0649,0.5196 0.1137,0.7744 0.1707,0.8408 0.4714,1.5775 0.8938,2.2102 0.4303,0.633 0.9425,1.1336 1.5434,1.4924 0.593,0.3589 1.2269,0.5383 1.9009,0.548 1.1537,-0.0097 2.1124,-0.3592 2.8679,-1.0392 0.7557,-0.68 1.3243,-1.5962 1.69,-2.7578 0.3733,-1.1526 0.5604,-2.456 0.5604,-3.9104 0,-1.6625 -0.2115,-3.0793 -0.6256,-4.2409 -0.4062,-1.162 -0.991,-2.0498 -1.7547,-2.6637 -0.7639,-0.6044 -1.6738,-0.9162 -2.738,-0.9162 -0.7228,0.0094 -1.3728,0.1888 -1.9658,0.5573 -0.5933,0.3589 -1.097,0.8405 -1.5111,1.4544 -0.4062,0.614 -0.6905,1.3037 -0.8612,2.0688 -0.0975,0.4532 -0.1463,0.9632 -0.1463,1.5301 l 0,4.0802 z m 49.8076,0.5102 c 0.008,1.6529 -0.1624,3.2018 -0.5119,4.6472 -0.3493,1.4544 -0.9258,2.7201 -1.7221,3.8253 -0.8045,1.105 -1.8686,1.9644 -3.217,2.588 -1.3405,0.6234 -2.9977,0.9445 -4.9802,0.9539 -1.446,-0.0094 -2.77,-0.1417 -3.9643,-0.4062 -1.186,-0.2645 -2.226,-0.5856 -3.1198,-0.9635 -0.8935,-0.3776 -1.6245,-0.7554 -2.177,-1.1239 l 1.3646,-5.554 c 0.5281,0.3875 1.1455,0.7368 1.8607,1.0486 0.7066,0.3118 1.4703,0.5666 2.2748,0.7557 0.8121,0.1888 1.6245,0.2928 2.4449,0.2928 0.9099,-0.0096 1.6492,-0.1227 2.2181,-0.3495 0.5768,-0.2268 1.0153,-0.5289 1.324,-0.8878 0.3087,-0.3685 0.5202,-0.7557 0.6336,-1.1806 0.1139,-0.4159 0.1706,-0.8218 0.1627,-1.2093 l 0,-0.3399 c -2.1124,0 -4.0297,-0.2174 -5.7436,-0.6423 -1.7144,-0.4346 -3.1847,-1.0862 -4.4115,-1.9551 -1.2266,-0.8784 -2.177,-1.974 -2.8352,-3.306 -0.658,-1.3317 -0.991,-2.8996 -0.9993,-4.6942 0,-1.1146 0.1789,-2.1818 0.5281,-3.1926 0.3413,-1.0106 0.853,-1.9174 1.5109,-2.7108 0.6664,-0.8028 1.4709,-1.4261 2.4211,-1.889 0.9507,-0.4629 2.031,-0.699 3.2414,-0.7084 1.4216,0 2.7218,0.2928 3.8914,0.8688 1.1619,0.5763 2.145,1.4264 2.9327,2.5314 l 0.1463,0 0.4388,-2.7769 6.6778,0 c -0.0975,0.5196 -0.1706,1.124 -0.2276,1.8324 -0.0567,0.7083 -0.0975,1.4734 -0.1298,2.3048 -0.0244,0.8218 -0.0326,1.6716 -0.0326,2.55 l 0,9.6911 z m -7.1654,-6.2906 c 0,-0.2551 -0.008,-0.5102 -0.0323,-0.7557 -0.0244,-0.2551 -0.0652,-0.4913 -0.114,-0.7178 -0.1704,-0.595 -0.4385,-1.1239 -0.8124,-1.6058 -0.3733,-0.4722 -0.8283,-0.8501 -1.3484,-1.1333 -0.5199,-0.2834 -1.0806,-0.4252 -1.6898,-0.4345 -0.5607,0 -1.0559,0.1227 -1.4947,0.3588 -0.4388,0.2455 -0.788,0.6047 -1.04,1.0956 -0.2517,0.4819 -0.3818,1.0959 -0.3898,1.8326 0.0162,1.0863 0.3249,1.9551 0.9261,2.5974 0.6092,0.6327 1.4298,1.0956 2.4695,1.3694 1.0401,0.2741 2.2097,0.4062 3.5258,0.3969 l 0,-3.0036 z m -1.9497,29.696 -4.1919,-8.6142 5.0695,0 5.9465,8.6142 -6.8241,0 z m 23.2421,-39.7837 7.4092,0 0,14.0548 c 0,0.3399 0.008,0.68 0.0326,1.0105 0.0241,0.3212 0.0649,0.633 0.1137,0.9162 0.2517,1.3507 0.8203,2.4086 1.6897,3.183 0.8773,0.7747 2.0067,1.1713 3.3795,1.1806 0.4062,0 0.7719,-0.0283 1.0885,-0.066 0.3169,-0.0471 0.6256,-0.1038 0.9099,-0.1604 l 0,8.1039 c -0.2599,0.0567 -0.4952,0.1041 -0.7228,0.1324 -0.2274,0.0283 -0.5037,0.0377 -0.8368,0.0377 -0.593,0 -1.1943,-0.104 -1.8199,-0.3305 -0.6256,-0.2174 -1.2268,-0.567 -1.8195,-1.0296 -0.5851,-0.4629 -1.1211,-1.0675 -1.6005,-1.7946 -0.4875,-0.7273 -0.8855,-1.6058 -1.1945,-2.626 l -0.1947,0 -0.2926,5.1007 -6.3365,0 c 0.0487,-0.7841 0.0893,-1.6246 0.1136,-2.5127 0.0326,-0.8971 0.0488,-1.8793 0.065,-2.9656 0.008,-1.0769 0.0161,-2.2952 0.0161,-3.6459 l 0,-18.5885 z" />
      <path
         inkscape:connector-curvature="0"
         id="path3426"
         style="fill:#1b1615;fill-opacity:1;fill-rule:nonzero;stroke:none"
         d="m 542.283,230.7042 c -9.4328,-15.0203 -21.1425,-23.3354 -35.1314,-24.7428 -9.5919,-0.9649 -16.9532,1.946 -22.184,8.7865 -5.131,6.8468 -6.9313,16.3667 -5.235,28.592 1.6384,11.8071 5.8609,23.1548 12.4398,34.0302 6.5217,10.7807 15.6065,21.0682 27.0173,30.7859 22.428,19.107 47.454,29.0095 74.7715,29.9758 17.3622,0.614 30.4874,-3.2975 39.3746,-11.6206 8.8858,-8.2939 12.2964,-19.3938 10.5236,-33.374 -1.5386,-12.134 -6.8198,-23.8028 -15.8816,-35.1691 -9.0598,-11.4384 -21.0289,-19.9344 -35.7574,-25.4075 -0.2055,1.4221 -0.3608,2.8683 -0.5666,4.3149 20.664,9.5351 32.2891,25.4358 35.1779,47.6985 1.8318,14.1169 -1.0916,25.2618 -8.6768,33.4976 -7.6862,8.3101 -19.0599,12.1624 -34.1184,11.5569 -20.5614,-0.8266 -39.7406,-8.5213 -57.4353,-23.3396 -18.089,-15.0863 -28.6614,-32.7087 -31.3676,-52.6981 -1.4511,-10.7189 0.1888,-19.0596 4.7659,-25.0685 4.6766,-5.9865 10.637,-8.6292 17.7825,-7.9602 9.0939,0.8515 15.876,4.6737 20.3454,11.5387 1.402,-0.4728 2.7539,-0.9451 4.1556,-1.3966 z m 60.6271,83.2563 c -9.2174,-9.8654 -14.8938,-23.2038 -17.0529,-39.8778 -0.6072,-4.6893 -0.7954,-13.9226 -0.4405,-27.7503 0.4544,-13.8078 0.0476,-25.575 -1.26,-35.3894 -2.9152,-21.8829 -10.6841,-40.2429 -23.5647,-55.1027 -12.9263,-15.088 -28.1738,-23.9423 -45.6979,-26.3951 -12.8285,-1.7957 -22.9802,0.3884 -30.4021,6.4565 -7.4228,6.1373 -10.5103,14.4074 -9.1106,24.664 0.1931,1.4181 0.3861,2.8357 0.629,4.2511 7.3335,2.4562 14.7671,4.8915 22.0014,7.2864 0.203,-0.648 0.4056,-1.2463 0.6585,-1.8714 -2.7306,-3.8438 -4.4595,-8.0972 -5.0873,-12.7559 -0.9176,-6.7839 0.9567,-12.3131 5.6225,-16.518 4.8146,-4.089 11.1175,-5.6588 19.0046,-4.5831 11.7337,1.6007 21.7976,7.7182 30.1952,18.392 8.35,10.5101 13.6247,24.2776 15.9182,41.2807 1.1979,8.8826 1.8644,20.6232 2.2048,35.0688 0.3405,14.5072 0.8513,24.0917 1.482,28.851 1.4079,10.357 4.5436,19.9123 9.4359,28.7246 4.841,8.72 12.2845,17.949 22.2526,27.7257 1.0539,-0.8178 2.1075,-1.6347 3.2113,-2.4571 z m 87.825,-135.8212 c -6.2674,-9.6006 -12.5609,-16.8173 -19.1715,-21.7204 -6.649,-4.932 -15.0129,-8.1241 -25.1504,-9.55 -7.3908,-1.0394 -13.1417,0.4791 -16.9538,4.6392 -3.7621,4.1293 -5.1273,10.5662 -4.0167,19.1971 0.2991,2.3227 0.7824,4.8002 1.4724,7.475 -3.8305,-4.8518 -6.8647,-8.7325 -8.9527,-11.6561 -1.4525,0.9031 -2.8049,1.8059 -4.2075,2.7329 14.3226,19.1914 24.9242,31.7854 31.8512,37.9295 6.9778,6.0908 13.7642,9.4808 20.1626,10.1274 3.5969,0.3634 6.4491,-0.4536 8.4566,-2.4154 2.0545,-2.0075 2.8148,-4.7665 2.3261,-8.2894 -1.5109,-12.1714 -13.0141,-25.338 -34.8537,-39.8574 1.8712,-6.5092 7.2287,-9.1559 15.9673,-7.9702 4.0969,0.5562 8.8353,2.74 14.3697,6.5895 5.3345,3.8752 10.4156,9.0572 15.2433,15.6265 1.1024,-0.9601 2.2547,-1.9207 3.4571,-2.8582 z m -50.9045,-6.1475 c 15.8093,9.5471 24.1837,18.8964 25.3442,28.2238 0.3493,2.8082 -0.0929,5.0247 -1.3218,6.6716 -1.1814,1.584 -3.0055,2.2598 -5.4552,1.9961 -4.5465,-0.4892 -8.6877,-3.1263 -12.3704,-7.8658 -3.6822,-4.8487 -5.9596,-10.4488 -6.74,-16.6714 -0.4351,-3.4682 -0.4277,-6.3122 -0.0697,-8.6202 0.4076,-2.2153 0.6616,-3.4381 0.6129,-3.7341 z m 60.4936,93.229 c -12.521,-11.0033 -25.1884,-22.1621 -38.0526,-33.4806 -1.9993,-0.2049 -3.9487,-0.3917 -5.8981,-0.578 5.3147,10.6935 10.6807,21.3007 15.9979,31.8881 9.4009,0.7251 18.7518,1.4374 27.9528,2.1705 z m 84.5433,-73.6503 c -11.257,-17.9507 -22.0794,-27.7492 -32.4202,-29.2034 -5.2951,-0.7444 -9.5964,0.7075 -12.9537,4.3254 -3.4577,3.6348 -8.0762,11.4644 -13.9065,23.4986 -2.4905,-3.1255 -4.9312,-6.2603 -7.3715,-9.4045 -0.8323,-6.2252 -1.5645,-12.4361 -2.2966,-18.6525 -4.4893,-2.9067 -8.928,-5.8502 -13.4164,-8.7869 2.0993,16.9124 4.1992,33.8279 6.3502,50.6795 -6.5217,-9.2171 -13.0921,-18.5031 -19.611,-27.8603 -1.1029,1.0911 -2.2558,2.1836 -3.3086,3.2973 16.2717,24.2325 24.3845,36.8047 24.5809,38.008 1.2204,10.3635 2.5648,20.7494 3.8124,31.0629 1.2449,10.2929 2.5602,20.6139 3.865,30.9204 1.3876,10.961 5.8467,20.7552 13.6298,29.3649 7.6346,8.5397 15.3808,12.9662 23.2881,13.3316 8.9081,0.4652 12.706,-4.3543 11.4947,-14.2843 -0.9499,-7.7879 -4.9603,-18.7744 -12.181,-32.9806 -7.3179,-14.3892 -17.5289,-31.0186 -30.7301,-49.9524 -1.5174,-11.9222 -2.9843,-23.8237 -4.451,-35.7893 11.1583,14.3135 19.6821,23.9606 25.4685,29.1067 5.7875,5.0451 11.0313,7.8321 15.7801,8.3293 3.4498,0.3608 6.2527,-0.7906 8.3586,-3.3843 2.1563,-2.6354 3.0846,-4.8679 2.8655,-6.7048 -0.3206,-2.6855 -3.4361,-6.0744 -9.3759,-10.2396 -1.9165,6.9843 -4.7727,10.2561 -8.6728,9.8241 -4.4473,-0.4927 -10.4865,-5.2152 -18.0122,-14.2475 5.0249,-10.0611 9.0927,-17.5397 12.3536,-22.4286 3.1607,-4.8674 7.3656,-6.9942 12.5099,-6.2921 4.5984,0.6273 11.7275,7.797 21.145,21.3052 1.0517,-0.9623 2.1036,-1.902 3.2052,-2.8428 z m -59.9032,43.9914 c 9.7126,14.735 17.2809,28.0859 22.8033,40.0892 5.474,11.886 8.629,21.3962 9.487,28.488 0.4176,3.4509 0.006,6.3374 -1.222,8.7066 -1.2359,2.3848 -3.1615,3.5163 -5.8136,3.3777 -4.3035,-0.2205 -8.2496,-3.2139 -11.8882,-8.9464 -3.7378,-5.8394 -6.0219,-12.5952 -7.052,-20.3527 -2.1056,-17.0989 -4.2605,-34.2185 -6.3145,-51.3624 z m 85.5672,-0.7458 c 5.3566,-2.8494 9.3654,-7.3636 12.0265,-13.6261 2.7111,-6.2224 3.621,-12.6451 2.8333,-19.3241 -0.9374,-7.9478 -3.7732,-15.2036 -8.4606,-21.6584 -4.7364,-6.5103 -10.2761,-10.2631 -16.6725,-11.1549 -3.1468,-0.4388 -6.4976,0.337 -9.8501,2.2476 -3.4526,1.9633 -6.2581,5.1114 -8.4668,9.536 2.8896,4.4841 6.73,8.566 11.5716,12.0986 0.2505,-0.3901 0.4512,-0.7798 0.752,-1.1716 -0.248,-0.913 -0.4453,-2.1832 -0.6421,-3.8344 -0.4921,-3.7616 0.2141,-6.9866 2.2187,-9.5888 1.8547,-2.6555 4.3064,-3.7811 7.1541,-3.3871 3.4979,0.4842 6.5925,2.6136 9.2347,6.3281 2.5923,3.7051 4.2341,8.1289 4.8246,13.3432 1.2809,10.6401 -3.0348,19.5253 -13.0989,26.6738 -3.8883,-6.1674 -7.7757,-12.3614 -11.7131,-18.5423 -4.7832,-7.7068 -8.1717,-12.8602 -10.2651,-15.5741 -1.1018,0.9397 -2.1535,1.8782 -3.2054,2.8392 4.7835,7.1291 9.5051,14.9411 14.3487,23.4263 4.822,8.4478 9.6659,17.6043 14.5984,27.3733 0.8504,-0.007 1.7507,-0.013 2.6011,0.001 0.0536,-2.001 0.1074,-4.0017 0.2109,-6.0058 z m 32.5151,-37.4278 c -9.4731,-16.0061 -20.2533,-25.5263 -32.3929,-28.5398 -0.1514,0.7954 -0.3028,1.5911 -0.4541,2.3868 5.5437,2.2201 10.3365,5.2622 14.4283,9.1995 4.1423,3.8747 9.2804,10.4108 15.5152,19.5809 0.9513,-0.8892 1.9023,-1.7589 2.9035,-2.6274 z m 55.1894,6.9454 c -4.8923,-8.4087 -9.8357,-14.6837 -15.0304,-18.9598 -5.1942,-4.2644 -11.7403,-6.9296 -19.6356,-8.047 -5.798,-0.8206 -10.2475,0.6132 -13.2018,4.3339 -2.9546,3.691 -3.9691,9.3946 -3.0739,16.9838 0.2404,2.0381 0.5939,4.197 1.1906,6.5228 -3.0439,-4.1814 -5.3887,-7.5594 -6.9846,-10.1262 -1.101,0.8144 -2.2023,1.6274 -3.2533,2.4619 11.1248,16.734 19.4108,27.7245 24.8553,33.0624 5.445,5.2932 10.7427,8.2112 15.7949,8.735 2.8502,0.2954 4.9978,-0.4507 6.5551,-2.2609 1.5474,-1.7989 2.1552,-4.2222 1.8082,-7.3528 -1.2396,-10.713 -10.2282,-22.2602 -27.3123,-34.7428 1.4074,-5.7841 5.6089,-8.1783 12.4069,-7.2681 3.1983,0.4281 6.9463,2.3338 11.2422,5.6387 4.1961,3.3523 8.1916,7.8438 11.9863,13.5689 0.851,-0.8623 1.7518,-1.7065 2.6524,-2.5498 z m -39.7939,-4.7449 c 12.4396,8.174 18.938,16.3823 19.9216,24.5622 0.3047,2.5325 -0.0544,4.4748 -1.0068,5.9253 -0.9516,1.4493 -2.3539,2.0477 -4.3033,1.8445 -3.5017,-0.3654 -6.749,-2.6637 -9.6443,-6.8207 -2.8951,-4.2305 -4.6951,-9.1389 -5.3317,-14.6557 -0.3521,-3.0507 -0.3427,-5.5381 -0.04,-7.5974 0.3526,-1.9197 0.4541,-2.998 0.4045,-3.2582 z m 47.5342,81.7387 c -9.8507,-9.6301 -19.7989,-19.3983 -29.7944,-29.2541 -1.601,-0.1808 -3.1014,-0.3257 -4.6522,-0.4714 4.2417,9.3864 8.4342,18.722 12.5779,28.0103 7.3561,0.5646 14.6123,1.1429 21.8687,1.7152 z m 63.1661,-65.931 c -8.4507,-14.9621 -15.5996,-23.3476 -21.399,-24.9639 -1.3462,-12.5827 -2.7825,-25.1699 -4.1375,-37.7784 -1.0862,-10.1089 -4.5901,-18.8297 -10.3325,-26.0056 -5.8411,-7.2289 -12.5329,-11.5909 -20.1232,-12.9909 -5.095,-0.94 -9.6401,-0.3634 -13.6874,1.7557 -3.9481,2.1691 -6.2487,5.2274 -6.802,9.2872 3.1938,3.7786 6.3876,7.5427 9.5321,11.3114 0.4,-0.4986 0.8002,-0.997 1.2002,-1.495 -0.3989,-1.0942 -0.6477,-2.2502 -0.7467,-3.369 -0.496,-4.2015 0.4558,-7.6717 2.7559,-10.3819 2.3499,-2.7023 5.3957,-3.6864 9.1936,-2.9959 5.1423,0.9354 9.2744,4.0875 12.6825,9.4892 3.38,5.3572 5.5893,12.4699 6.5848,21.2199 0.9454,8.9892 1.9653,18.0417 2.9373,27.0493 0.97,8.991 1.9925,17.9929 2.9891,26.9805 -7.2456,-10.6705 -14.5406,-16.5331 -21.8401,-17.566 -5.3971,-0.7637 -9.549,1.0712 -12.5022,5.5133 -2.9032,4.4167 -3.9758,9.707 -3.3125,15.8063 0.1803,1.6583 0.3472,3.3398 0.5456,5.0369 -1.9474,-3.081 -3.895,-6.1503 -5.8923,-9.2081 -1.0007,0.7685 -1.9514,1.5579 -2.9523,2.3689 9.5882,14.969 17.1326,25.1207 22.6811,30.6607 5.4992,5.4612 10.6489,8.4657 15.5526,8.9768 5.3016,0.5524 9.2559,-0.8992 11.8584,-4.3439 3.4013,2.7686 6.8026,5.5061 10.2042,8.2494 -0.949,-8.4245 -1.8746,-16.8236 -2.7961,-25.228 -0.9252,-8.4385 -1.8465,-16.8823 -2.7944,-25.3197 4.3999,1.0613 10.4494,7.9135 18.1001,20.5283 0.8002,-0.868 1.6506,-1.7377 2.5007,-2.5875 z m -28.4556,-4.7673 c 0.8473,7.4829 1.6449,14.9964 2.4928,22.4827 -2.3029,5.2506 -5.8544,7.5736 -10.8079,7.0614 -4.6007,-0.4757 -8.7529,-3.1975 -12.4515,-8.2449 -3.748,-5.0266 -5.9732,-10.9499 -6.7402,-17.6726 -0.724,-6.3428 -0.1423,-11.1245 1.8598,-14.3642 1.9522,-3.2707 5.0023,-4.6197 9.0524,-4.074 4.3988,0.5924 8.2287,2.8964 11.4971,6.9086 3.2788,4.0249 4.9478,6.6467 5.0975,7.903" />
      <path
         inkscape:connector-curvature="0"
         id="path3428"
         style="fill:#ffffff;fill-opacity:1;fill-rule:nonzero;stroke:none"
         d="m 537.9517,226.5293 c -9.4816,-15.1248 -21.291,-23.4978 -35.3784,-24.9491 -9.5422,-0.9828 -16.9523,1.885 -22.1831,8.7542 -5.1315,6.8998 -6.8564,16.4339 -5.1865,28.7402 1.6132,11.8893 5.809,23.3266 12.4367,34.2632 6.5713,10.8431 15.6549,21.2253 27.0644,30.99 22.526,19.2924 47.5993,29.2967 74.9664,30.3424 17.5105,0.6689 30.5864,-3.2406 39.5235,-11.5886 8.8359,-8.3135 12.35,-19.463 10.5752,-33.5466 -1.5353,-12.1853 -6.8684,-23.9347 -15.8791,-35.3988 -9.2087,-11.4993 -21.1266,-20.0682 -35.9042,-25.6099 -0.2055,1.425 -0.3612,2.8505 -0.5669,4.2999 20.6625,9.6755 32.3662,25.6598 35.2235,48.0699 1.8108,14.2013 -1.0428,25.4098 -8.6779,33.6532 -7.7366,8.3103 -19.1087,12.1623 -34.2675,11.5135 -20.6093,-0.8822 -39.8387,-8.648 -57.5816,-23.6132 -18.0873,-15.1619 -28.6248,-32.9284 -31.3628,-53.0393 -1.4672,-10.7759 0.1398,-19.1523 4.767,-25.1887 4.6766,-6.0134 10.5883,-8.636 17.7821,-7.9364 9.0946,0.8844 15.9749,4.7423 20.4939,11.658 1.3518,-0.4708 2.7037,-0.9408 4.1553,-1.4139 z m 60.7195,83.8655 c -9.2163,-9.9626 -14.9561,-23.356 -17.1502,-40.1193 -0.621,-4.7472 -0.7441,-14.0318 -0.3886,-27.9374 0.5051,-13.8614 0.0354,-25.6816 -1.2577,-35.5671 -2.8775,-21.9918 -10.7314,-40.5006 -23.6106,-55.4491 -13.0247,-15.2249 -28.2226,-24.1501 -45.8439,-26.6386 -12.8795,-1.819 -23.0292,0.284 -30.5011,6.3726 -7.4231,6.2081 -10.4167,14.4643 -9.0618,24.7969 0.1865,1.4224 0.3861,2.8429 0.5789,4.2888 7.3329,2.48 14.7662,4.9385 22.1,7.3792 0.2027,-0.6489 0.4056,-1.2728 0.6582,-1.8987 -2.7298,-3.884 -4.4586,-8.151 -5.0862,-12.797 -0.9669,-6.8754 0.9575,-12.4135 5.6231,-16.5917 4.7151,-4.1352 11.018,-5.7195 19.0539,-4.5973 11.6836,1.6322 21.846,7.8375 30.2428,18.5806 8.3988,10.578 13.6874,24.44 15.9151,41.5329 1.2124,8.9342 1.9132,20.7227 2.2029,35.25 0.3897,14.589 0.8997,24.2441 1.5301,29.0157 1.3572,10.3867 4.5519,20.0559 9.4337,28.9066 4.8498,8.7919 12.3829,18.083 22.35,27.928 1.054,-0.8169 2.1076,-1.6333 3.2114,-2.4551 z m 88.0282,-136.3447 c -6.2166,-9.6837 -12.5396,-16.9345 -19.1693,-21.9056 -6.6288,-4.9861 -15.0621,-8.1524 -25.1988,-9.6097 -7.4906,-1.0769 -13.191,0.4263 -17.0031,4.5861 -3.7621,4.1517 -5.1381,10.6478 -4.0674,19.3009 0.2883,2.3298 0.7821,4.8356 1.5219,7.4945 -3.8801,-4.8719 -6.8641,-8.7681 -9.0017,-11.7267 -1.4023,0.9015 -2.8049,1.8029 -4.1576,2.7287 14.3209,19.3617 24.8715,32.0354 31.8977,38.2266 6.9271,6.1472 13.7639,9.5502 20.2111,10.2433 3.5977,0.3866 6.4003,-0.4113 8.4566,-2.4231 2.0559,-2.0299 2.8145,-4.773 2.376,-8.3044 -1.5602,-12.2462 -13.0618,-25.5373 -34.9498,-40.1862 1.8717,-6.5199 7.1773,-9.1715 15.9171,-7.9716 4.1953,0.5757 8.9345,2.8111 14.3685,6.6617 5.4842,3.9164 10.5648,9.1216 15.3417,15.7417 1.1024,-0.9593 2.3048,-1.9194 3.4571,-2.8562 z m -51.0018,-6.3046 c 15.8582,9.6299 24.251,19.0832 25.4415,28.3916 0.3686,2.8805 -0.0932,5.1032 -1.3217,6.7283 -1.232,1.6296 -3.0569,2.2918 -5.5055,2.0132 -4.5972,-0.4896 -8.687,-3.1306 -12.3693,-7.9586 -3.7318,-4.8694 -6.023,-10.4613 -6.8385,-16.7706 -0.4493,-3.4753 -0.4272,-6.3275 -0.0692,-8.6607 0.4575,-2.2212 0.7118,-3.4464 0.6627,-3.7432 z m 60.6359,93.89 c -12.5696,-11.1189 -25.236,-22.3781 -38.099,-33.7745 -2.0492,-0.2316 -3.9986,-0.4212 -5.9978,-0.6114 5.4139,10.7708 10.7291,21.4599 16.0954,32.129 9.4002,0.7475 18.7506,1.5057 28.0014,2.2569 z m 84.7432,-73.8408 c -11.2558,-18.0811 -22.1278,-27.9609 -32.4672,-29.429 -5.2957,-0.7517 -9.5751,0.6562 -13.0535,4.305 -3.4368,3.6054 -8.0263,11.5146 -13.9068,23.6041 -2.4902,-3.1584 -4.9306,-6.3284 -7.3706,-9.4853 -0.832,-6.2635 -1.5639,-12.5119 -2.2958,-18.7441 -4.4388,-2.9461 -8.9771,-5.9054 -13.4652,-8.8815 2.0982,16.9999 4.1976,34.0032 6.3474,50.9629 -6.571,-9.3189 -13.0405,-18.6437 -19.6586,-28.0576 -1.1029,1.0908 -2.1557,2.181 -3.2587,3.295 16.2697,24.4143 24.4313,37.0562 24.5778,38.2845 1.2699,10.4108 2.615,20.8006 3.8605,31.1847 1.2458,10.3851 2.5603,20.7542 3.8634,31.1092 1.3881,11.0327 5.9453,20.9182 13.6774,29.5653 7.634,8.5969 15.4295,13.0944 23.3362,13.4773 8.9581,0.4595 12.7582,-4.3409 11.5453,-14.3379 -0.9474,-7.8077 -5.0094,-18.8651 -12.2287,-33.2047 -7.3171,-14.4386 -17.5768,-31.1715 -30.8262,-50.262 -1.5168,-11.9962 -2.9832,-23.972 -4.449,-35.9898 11.257,14.4349 19.7799,24.1458 25.6159,29.3134 5.737,5.0949 11.0313,7.9106 15.779,8.4058 3.4506,0.36 6.2521,-0.7554 8.3582,-3.3715 2.1062,-2.6342 3.1068,-4.8702 2.8656,-6.7331 -0.3484,-2.6887 -3.4858,-6.1155 -9.375,-10.2856 -1.8667,6.9736 -4.7739,10.2538 -8.6729,9.8258 -4.4978,-0.4938 -10.4857,-5.2736 -18.1106,-14.362 5.0253,-10.1138 9.1931,-17.6247 12.4042,-22.5145 3.1609,-4.892 7.4143,-7.0044 12.5597,-6.2997 4.5964,0.6298 11.7264,7.8432 21.1428,21.467 1.0519,-0.9618 2.1036,-1.9012 3.2054,-2.8417 z m -59.9528,44.0351 c 9.7115,14.8796 17.3285,28.3164 22.8002,40.3849 5.4732,11.9687 8.6454,21.5444 9.5352,28.6543 0.4354,3.4781 -8e-4,6.4174 -1.2223,8.7684 -1.2424,2.391 -3.2116,3.4991 -5.8637,3.3755 -4.2534,-0.237 -8.199,-3.2451 -11.937,-9.036 -3.7375,-5.8612 -6.0211,-12.6595 -7.0007,-20.4585 -2.1547,-17.2071 -4.2086,-34.4174 -6.3117,-51.6886 z m 85.7135,-0.4893 c 5.4062,-2.8664 9.415,-7.4032 12.1266,-13.7143 2.6609,-6.2087 3.5955,-12.6669 2.7839,-19.4006 -0.9626,-7.9886 -3.7723,-15.2875 -8.4591,-21.7885 -4.7359,-6.5562 -10.3272,-10.3368 -16.6712,-11.2385 -3.1983,-0.4547 -6.5474,0.3016 -9.8997,2.2082 -3.5025,1.9809 -6.3581,5.152 -8.5167,9.5808 2.8389,4.5221 6.7788,8.6412 11.6201,12.193 0.2509,-0.4113 0.4516,-0.8014 0.7523,-1.1937 -0.248,-0.9153 -0.4453,-2.1889 -0.6919,-3.8421 -0.442,-3.7942 0.2644,-7.0242 2.2691,-9.6276 1.8544,-2.6566 4.305,-3.7703 7.1538,-3.3777 3.4968,0.4819 6.592,2.6146 9.2339,6.3643 2.6421,3.7191 4.2834,8.197 4.8738,13.4235 1.2805,10.7285 -3.0857,19.6466 -13.1496,26.7871 -3.8877,-6.2084 -7.825,-12.4458 -11.7116,-18.6735 -4.7826,-7.7556 -8.2205,-12.9473 -10.264,-15.6745 -1.1018,0.9389 -2.1535,1.8984 -3.2051,2.8588 4.6828,7.1798 9.5587,15.0542 14.3467,23.5749 4.7761,8.4994 9.7146,17.7247 14.5964,27.5723 0.9003,-0.005 1.7504,-0.009 2.6507,-0.0133 0.0539,-2.0053 0.0576,-4.0102 0.1616,-6.0186 z m 32.6151,-37.582 c -9.4719,-16.1039 -20.3011,-25.6915 -32.4898,-28.76 -0.1514,0.7971 -0.3028,1.5939 -0.4042,2.412 5.5431,2.2374 10.3356,5.2965 14.4771,9.2732 4.0918,3.9153 9.2795,10.4967 15.5134,19.7227 0.9513,-0.889 1.9023,-1.7791 2.9035,-2.6479 z m 55.3867,7.1447 c -4.9419,-8.4753 -9.8846,-14.8158 -15.0789,-19.114 -5.2438,-4.2834 -11.7901,-6.9879 -19.7342,-8.1289 -5.7983,-0.8325 -10.2472,0.5902 -13.2015,4.3118 -2.9546,3.7125 -4.0195,9.4521 -3.1246,17.0765 0.2403,2.046 0.6437,4.246 1.2401,6.5783 -3.0432,-4.2386 -5.3878,-7.6277 -7.0336,-10.2027 -1.101,0.8113 -2.152,1.6234 -3.2034,2.4571 11.0735,16.84 19.4088,27.9127 24.9026,33.2909 5.4445,5.341 10.6929,8.2684 15.7938,8.8104 2.8009,0.2979 5.0193,-0.4193 6.605,-2.2343 1.5696,-1.7966 2.1634,-4.244 1.8083,-7.361 -1.2306,-10.7997 -10.2768,-22.432 -27.4094,-35.0399 1.4576,-5.7952 5.6106,-8.2145 12.4569,-7.2768 3.2496,0.445 6.9457,2.3561 11.2413,5.7191 4.2458,3.3659 8.1907,7.8991 11.9852,13.665 0.9009,-0.843 1.8014,-1.7076 2.7524,-2.5515 z m -39.8919,-4.8863 c 12.4384,8.2621 18.9717,16.5041 19.9196,24.7453 0.2897,2.5206 -0.078,4.4898 -1.0072,5.9528 -0.9246,1.4558 -2.4009,2.0429 -4.2533,1.8379 -3.5983,-0.3977 -6.8483,-2.681 -9.7436,-6.8743 -2.8947,-4.2465 -4.6882,-9.1907 -5.2806,-14.7427 -0.3957,-3.056 -0.3923,-5.5482 -0.0893,-7.6116 0.3526,-1.9638 0.504,-3.0466 0.4544,-3.3074 z m 47.6283,82.3002 c -9.9,-9.7095 -19.7972,-19.5845 -29.8919,-29.5205 -1.5506,-0.1647 -3.1011,-0.3138 -4.652,-0.4621 4.2412,9.4354 8.4331,18.8612 12.6261,28.2359 7.3559,0.5851 14.6616,1.1758 21.9178,1.7467 z m 63.216,-66.1444 c -8.3997,-15.0551 -15.5478,-23.4723 -21.2967,-25.1456 -1.4457,-12.6505 -2.8338,-25.3055 -4.1857,-37.9639 -1.0885,-10.1905 -4.5893,-18.9195 -10.381,-26.1822 -5.8405,-7.2785 -12.5788,-11.7025 -20.1716,-13.1076 -5.1415,-0.9516 -9.6894,-0.3881 -13.6871,1.7257 -3.9977,2.1838 -6.2983,5.2628 -6.8516,9.3101 3.1932,3.8146 6.4369,7.6139 9.5808,11.3984 0.3503,-0.4981 0.7503,-0.9768 1.1503,-1.4749 -0.3487,-1.0981 -0.6475,-2.2566 -0.7464,-3.3979 -0.4459,-4.2321 0.4564,-7.7071 2.7564,-10.4173 2.3497,-2.7221 5.4003,-3.729 9.243,-3.0192 5.0969,0.9414 9.3378,4.1491 12.7315,9.5794 3.3939,5.4068 5.5885,12.549 6.5336,21.3594 0.9949,9.0686 1.9885,18.1454 2.9857,27.21 0.9941,9.0349 1.9916,18.0944 3.0379,27.1035 -7.2947,-10.7104 -14.5922,-16.638 -21.9382,-17.6919 -5.4003,-0.7747 -9.5987,1.0134 -12.5019,5.4955 -2.9033,4.4388 -4.0269,9.76 -3.3633,15.9137 0.1794,1.6623 0.3472,3.3475 0.5456,5.0293 -1.9474,-3.0926 -3.9446,-6.1733 -5.8915,-9.2628 -1.0508,0.7909 -2.0517,1.6002 -3.0523,2.4103 9.6871,15.0384 17.2805,25.2689 22.8285,30.8336 5.4987,5.5426 10.6982,8.5263 15.6016,9.0482 5.3014,0.5641 9.2554,-0.8799 11.8579,-4.2872 3.401,2.7828 6.802,5.5517 10.2033,8.309 -0.8983,-8.464 -1.8745,-16.9373 -2.7448,-25.3843 -0.8756,-8.4994 -1.8955,-16.9804 -2.793,-25.4786 4.3997,1.0933 10.4984,8.0132 18.1483,20.6906 0.8002,-0.868 1.6004,-1.7348 2.4007,-2.6033 z m -28.4043,-4.8442 c 0.7974,7.5206 1.6446,15.0713 2.442,22.5754 -2.3028,5.3144 -5.8566,7.6734 -10.8079,7.1289 -4.6026,-0.506 -8.8022,-3.2601 -12.5002,-8.3461 -3.748,-5.0465 -5.9942,-11.0245 -6.7394,-17.7854 -0.7455,-6.3558 -0.0918,-11.1707 1.8607,-14.4516 1.9519,-3.2706 5.0028,-4.6213 9.102,-4.0617 4.3994,0.6009 8.2244,2.9063 11.5461,6.9681 3.2748,4.0051 4.9473,6.6747 5.0967,7.9724" />
    </g>
  </g>
</svg>
